%TF.GenerationSoftware,KiCad,Pcbnew,(5.1.10)-1*%
%TF.CreationDate,2021-11-13T20:10:17+01:00*%
%TF.ProjectId,Muino_debugger,4d75696e-6f5f-4646-9562-75676765722e,rev?*%
%TF.SameCoordinates,Original*%
%TF.FileFunction,Legend,Top*%
%TF.FilePolarity,Positive*%
%FSLAX46Y46*%
G04 Gerber Fmt 4.6, Leading zero omitted, Abs format (unit mm)*
G04 Created by KiCad (PCBNEW (5.1.10)-1) date 2021-11-13 20:10:17*
%MOMM*%
%LPD*%
G01*
G04 APERTURE LIST*
%ADD10C,0.300000*%
%ADD11C,0.150000*%
%ADD12C,0.120000*%
%ADD13C,0.010000*%
%ADD14C,0.200000*%
G04 APERTURE END LIST*
D10*
X120031370Y-65400000D02*
G75*
G03*
X120031370Y-65400000I-565685J0D01*
G01*
X120031370Y-67134315D02*
G75*
G03*
X120031370Y-67134315I-565685J0D01*
G01*
X118485685Y-68234315D02*
G75*
G03*
X118485685Y-68234315I-565685J0D01*
G01*
X116831370Y-67200000D02*
G75*
G03*
X116831370Y-67200000I-565685J0D01*
G01*
X116831370Y-65400000D02*
G75*
G03*
X116831370Y-65400000I-565685J0D01*
G01*
X118425685Y-64494315D02*
G75*
G03*
X118425685Y-64494315I-565685J0D01*
G01*
D11*
X123642380Y-78804642D02*
X122642380Y-78804642D01*
X122642380Y-78423690D01*
X122690000Y-78328452D01*
X122737619Y-78280833D01*
X122832857Y-78233214D01*
X122975714Y-78233214D01*
X123070952Y-78280833D01*
X123118571Y-78328452D01*
X123166190Y-78423690D01*
X123166190Y-78804642D01*
X123642380Y-77804642D02*
X122975714Y-77804642D01*
X123166190Y-77804642D02*
X123070952Y-77757023D01*
X123023333Y-77709404D01*
X122975714Y-77614166D01*
X122975714Y-77518928D01*
X123642380Y-77042738D02*
X123594761Y-77137976D01*
X123547142Y-77185595D01*
X123451904Y-77233214D01*
X123166190Y-77233214D01*
X123070952Y-77185595D01*
X123023333Y-77137976D01*
X122975714Y-77042738D01*
X122975714Y-76899880D01*
X123023333Y-76804642D01*
X123070952Y-76757023D01*
X123166190Y-76709404D01*
X123451904Y-76709404D01*
X123547142Y-76757023D01*
X123594761Y-76804642D01*
X123642380Y-76899880D01*
X123642380Y-77042738D01*
X122975714Y-75852261D02*
X123785238Y-75852261D01*
X123880476Y-75899880D01*
X123928095Y-75947500D01*
X123975714Y-76042738D01*
X123975714Y-76185595D01*
X123928095Y-76280833D01*
X123594761Y-75852261D02*
X123642380Y-75947500D01*
X123642380Y-76137976D01*
X123594761Y-76233214D01*
X123547142Y-76280833D01*
X123451904Y-76328452D01*
X123166190Y-76328452D01*
X123070952Y-76280833D01*
X123023333Y-76233214D01*
X122975714Y-76137976D01*
X122975714Y-75947500D01*
X123023333Y-75852261D01*
X123642380Y-75376071D02*
X122975714Y-75376071D01*
X123166190Y-75376071D02*
X123070952Y-75328452D01*
X123023333Y-75280833D01*
X122975714Y-75185595D01*
X122975714Y-75090357D01*
X123642380Y-74328452D02*
X123118571Y-74328452D01*
X123023333Y-74376071D01*
X122975714Y-74471309D01*
X122975714Y-74661785D01*
X123023333Y-74757023D01*
X123594761Y-74328452D02*
X123642380Y-74423690D01*
X123642380Y-74661785D01*
X123594761Y-74757023D01*
X123499523Y-74804642D01*
X123404285Y-74804642D01*
X123309047Y-74757023D01*
X123261428Y-74661785D01*
X123261428Y-74423690D01*
X123213809Y-74328452D01*
X123642380Y-73852261D02*
X122975714Y-73852261D01*
X123070952Y-73852261D02*
X123023333Y-73804642D01*
X122975714Y-73709404D01*
X122975714Y-73566547D01*
X123023333Y-73471309D01*
X123118571Y-73423690D01*
X123642380Y-73423690D01*
X123118571Y-73423690D02*
X123023333Y-73376071D01*
X122975714Y-73280833D01*
X122975714Y-73137976D01*
X123023333Y-73042738D01*
X123118571Y-72995119D01*
X123642380Y-72995119D01*
X123642380Y-72518928D02*
X122975714Y-72518928D01*
X123070952Y-72518928D02*
X123023333Y-72471309D01*
X122975714Y-72376071D01*
X122975714Y-72233214D01*
X123023333Y-72137976D01*
X123118571Y-72090357D01*
X123642380Y-72090357D01*
X123118571Y-72090357D02*
X123023333Y-72042738D01*
X122975714Y-71947500D01*
X122975714Y-71804642D01*
X123023333Y-71709404D01*
X123118571Y-71661785D01*
X123642380Y-71661785D01*
X123594761Y-70804642D02*
X123642380Y-70899880D01*
X123642380Y-71090357D01*
X123594761Y-71185595D01*
X123499523Y-71233214D01*
X123118571Y-71233214D01*
X123023333Y-71185595D01*
X122975714Y-71090357D01*
X122975714Y-70899880D01*
X123023333Y-70804642D01*
X123118571Y-70757023D01*
X123213809Y-70757023D01*
X123309047Y-71233214D01*
X123642380Y-70328452D02*
X122975714Y-70328452D01*
X123166190Y-70328452D02*
X123070952Y-70280833D01*
X123023333Y-70233214D01*
X122975714Y-70137976D01*
X122975714Y-70042738D01*
X103319047Y-87100000D02*
X103223809Y-87052380D01*
X103080952Y-87052380D01*
X102938095Y-87100000D01*
X102842857Y-87195238D01*
X102795238Y-87290476D01*
X102747619Y-87480952D01*
X102747619Y-87623809D01*
X102795238Y-87814285D01*
X102842857Y-87909523D01*
X102938095Y-88004761D01*
X103080952Y-88052380D01*
X103176190Y-88052380D01*
X103319047Y-88004761D01*
X103366666Y-87957142D01*
X103366666Y-87623809D01*
X103176190Y-87623809D01*
X103795238Y-88052380D02*
X103795238Y-87052380D01*
X104366666Y-88052380D01*
X104366666Y-87052380D01*
X104842857Y-88052380D02*
X104842857Y-87052380D01*
X105080952Y-87052380D01*
X105223809Y-87100000D01*
X105319047Y-87195238D01*
X105366666Y-87290476D01*
X105414285Y-87480952D01*
X105414285Y-87623809D01*
X105366666Y-87814285D01*
X105319047Y-87909523D01*
X105223809Y-88004761D01*
X105080952Y-88052380D01*
X104842857Y-88052380D01*
X106604761Y-87671428D02*
X107366666Y-87671428D01*
X107842857Y-87385714D02*
X108604761Y-87671428D01*
X107842857Y-87957142D01*
X119888095Y-81367380D02*
X120507142Y-81367380D01*
X120173809Y-81748333D01*
X120316666Y-81748333D01*
X120411904Y-81795952D01*
X120459523Y-81843571D01*
X120507142Y-81938809D01*
X120507142Y-82176904D01*
X120459523Y-82272142D01*
X120411904Y-82319761D01*
X120316666Y-82367380D01*
X120030952Y-82367380D01*
X119935714Y-82319761D01*
X119888095Y-82272142D01*
X120792857Y-81367380D02*
X121126190Y-82367380D01*
X121459523Y-81367380D01*
X117348095Y-81367380D02*
X117967142Y-81367380D01*
X117633809Y-81748333D01*
X117776666Y-81748333D01*
X117871904Y-81795952D01*
X117919523Y-81843571D01*
X117967142Y-81938809D01*
X117967142Y-82176904D01*
X117919523Y-82272142D01*
X117871904Y-82319761D01*
X117776666Y-82367380D01*
X117490952Y-82367380D01*
X117395714Y-82319761D01*
X117348095Y-82272142D01*
X118252857Y-81367380D02*
X118586190Y-82367380D01*
X118919523Y-81367380D01*
X114808095Y-81367380D02*
X115427142Y-81367380D01*
X115093809Y-81748333D01*
X115236666Y-81748333D01*
X115331904Y-81795952D01*
X115379523Y-81843571D01*
X115427142Y-81938809D01*
X115427142Y-82176904D01*
X115379523Y-82272142D01*
X115331904Y-82319761D01*
X115236666Y-82367380D01*
X114950952Y-82367380D01*
X114855714Y-82319761D01*
X114808095Y-82272142D01*
X115712857Y-81367380D02*
X116046190Y-82367380D01*
X116379523Y-81367380D01*
X112839523Y-81367380D02*
X112363333Y-81367380D01*
X112315714Y-81843571D01*
X112363333Y-81795952D01*
X112458571Y-81748333D01*
X112696666Y-81748333D01*
X112791904Y-81795952D01*
X112839523Y-81843571D01*
X112887142Y-81938809D01*
X112887142Y-82176904D01*
X112839523Y-82272142D01*
X112791904Y-82319761D01*
X112696666Y-82367380D01*
X112458571Y-82367380D01*
X112363333Y-82319761D01*
X112315714Y-82272142D01*
X113172857Y-81367380D02*
X113506190Y-82367380D01*
X113839523Y-81367380D01*
X110299523Y-81367380D02*
X109823333Y-81367380D01*
X109775714Y-81843571D01*
X109823333Y-81795952D01*
X109918571Y-81748333D01*
X110156666Y-81748333D01*
X110251904Y-81795952D01*
X110299523Y-81843571D01*
X110347142Y-81938809D01*
X110347142Y-82176904D01*
X110299523Y-82272142D01*
X110251904Y-82319761D01*
X110156666Y-82367380D01*
X109918571Y-82367380D01*
X109823333Y-82319761D01*
X109775714Y-82272142D01*
X110632857Y-81367380D02*
X110966190Y-82367380D01*
X111299523Y-81367380D01*
D12*
%TO.C,J3*%
X124400000Y-87690000D02*
X127060000Y-87690000D01*
X124400000Y-85090000D02*
X124400000Y-87690000D01*
X127060000Y-85090000D02*
X127060000Y-87690000D01*
X124400000Y-85090000D02*
X127060000Y-85090000D01*
X124400000Y-83820000D02*
X124400000Y-82490000D01*
X124400000Y-82490000D02*
X125730000Y-82490000D01*
D13*
%TO.C,G1*%
G36*
X117575686Y-66801964D02*
G01*
X117635295Y-66823167D01*
X117686553Y-66855953D01*
X117728568Y-66898310D01*
X117760446Y-66948225D01*
X117781295Y-67003685D01*
X117790222Y-67062678D01*
X117786332Y-67123190D01*
X117768734Y-67183209D01*
X117736534Y-67240722D01*
X117717379Y-67264864D01*
X117671257Y-67305746D01*
X117615924Y-67335794D01*
X117555322Y-67353866D01*
X117493390Y-67358820D01*
X117434068Y-67349515D01*
X117429817Y-67348205D01*
X117365884Y-67319499D01*
X117311258Y-67278054D01*
X117268268Y-67225803D01*
X117255614Y-67203800D01*
X117232300Y-67141690D01*
X117224463Y-67079004D01*
X117230849Y-67017769D01*
X117250204Y-66960018D01*
X117281273Y-66907779D01*
X117322802Y-66863081D01*
X117373537Y-66827956D01*
X117432224Y-66804432D01*
X117497609Y-66794540D01*
X117508620Y-66794358D01*
X117575686Y-66801964D01*
G37*
X117575686Y-66801964D02*
X117635295Y-66823167D01*
X117686553Y-66855953D01*
X117728568Y-66898310D01*
X117760446Y-66948225D01*
X117781295Y-67003685D01*
X117790222Y-67062678D01*
X117786332Y-67123190D01*
X117768734Y-67183209D01*
X117736534Y-67240722D01*
X117717379Y-67264864D01*
X117671257Y-67305746D01*
X117615924Y-67335794D01*
X117555322Y-67353866D01*
X117493390Y-67358820D01*
X117434068Y-67349515D01*
X117429817Y-67348205D01*
X117365884Y-67319499D01*
X117311258Y-67278054D01*
X117268268Y-67225803D01*
X117255614Y-67203800D01*
X117232300Y-67141690D01*
X117224463Y-67079004D01*
X117230849Y-67017769D01*
X117250204Y-66960018D01*
X117281273Y-66907779D01*
X117322802Y-66863081D01*
X117373537Y-66827956D01*
X117432224Y-66804432D01*
X117497609Y-66794540D01*
X117508620Y-66794358D01*
X117575686Y-66801964D01*
G36*
X118424319Y-66776341D02*
G01*
X118484458Y-66803421D01*
X118535421Y-66842537D01*
X118575496Y-66892000D01*
X118602975Y-66950122D01*
X118616145Y-67015216D01*
X118616443Y-67019305D01*
X118613281Y-67089768D01*
X118595020Y-67154183D01*
X118562849Y-67210886D01*
X118517957Y-67258212D01*
X118461534Y-67294494D01*
X118404858Y-67315551D01*
X118363510Y-67324401D01*
X118327438Y-67326057D01*
X118288633Y-67320435D01*
X118262734Y-67314080D01*
X118199734Y-67289115D01*
X118146328Y-67251780D01*
X118103760Y-67204272D01*
X118073275Y-67148792D01*
X118056118Y-67087536D01*
X118053534Y-67022705D01*
X118064481Y-66963837D01*
X118091599Y-66899962D01*
X118130901Y-66846712D01*
X118180573Y-66805332D01*
X118238804Y-66777068D01*
X118303780Y-66763165D01*
X118356714Y-66762983D01*
X118424319Y-66776341D01*
G37*
X118424319Y-66776341D02*
X118484458Y-66803421D01*
X118535421Y-66842537D01*
X118575496Y-66892000D01*
X118602975Y-66950122D01*
X118616145Y-67015216D01*
X118616443Y-67019305D01*
X118613281Y-67089768D01*
X118595020Y-67154183D01*
X118562849Y-67210886D01*
X118517957Y-67258212D01*
X118461534Y-67294494D01*
X118404858Y-67315551D01*
X118363510Y-67324401D01*
X118327438Y-67326057D01*
X118288633Y-67320435D01*
X118262734Y-67314080D01*
X118199734Y-67289115D01*
X118146328Y-67251780D01*
X118103760Y-67204272D01*
X118073275Y-67148792D01*
X118056118Y-67087536D01*
X118053534Y-67022705D01*
X118064481Y-66963837D01*
X118091599Y-66899962D01*
X118130901Y-66846712D01*
X118180573Y-66805332D01*
X118238804Y-66777068D01*
X118303780Y-66763165D01*
X118356714Y-66762983D01*
X118424319Y-66776341D01*
G36*
X117108737Y-66096306D02*
G01*
X117137272Y-66098653D01*
X117160187Y-66103900D01*
X117183133Y-66113137D01*
X117198950Y-66120889D01*
X117254003Y-66157867D01*
X117300935Y-66207803D01*
X117332613Y-66259034D01*
X117342753Y-66282749D01*
X117348750Y-66306966D01*
X117351546Y-66337304D01*
X117352104Y-66375166D01*
X117351264Y-66414829D01*
X117348322Y-66443352D01*
X117342182Y-66466496D01*
X117331746Y-66490024D01*
X117329330Y-66494738D01*
X117290848Y-66552058D01*
X117242079Y-66597853D01*
X117185384Y-66630929D01*
X117123124Y-66650095D01*
X117057659Y-66654158D01*
X117022367Y-66649761D01*
X116956438Y-66629547D01*
X116900366Y-66595819D01*
X116853580Y-66548131D01*
X116817221Y-66489506D01*
X116798376Y-66434395D01*
X116792195Y-66373468D01*
X116798705Y-66312184D01*
X116816078Y-66259850D01*
X116853933Y-66197447D01*
X116903018Y-66147677D01*
X116943597Y-66120642D01*
X116966618Y-66108756D01*
X116986902Y-66101388D01*
X117009788Y-66097478D01*
X117040614Y-66095965D01*
X117068933Y-66095766D01*
X117108737Y-66096306D01*
G37*
X117108737Y-66096306D02*
X117137272Y-66098653D01*
X117160187Y-66103900D01*
X117183133Y-66113137D01*
X117198950Y-66120889D01*
X117254003Y-66157867D01*
X117300935Y-66207803D01*
X117332613Y-66259034D01*
X117342753Y-66282749D01*
X117348750Y-66306966D01*
X117351546Y-66337304D01*
X117352104Y-66375166D01*
X117351264Y-66414829D01*
X117348322Y-66443352D01*
X117342182Y-66466496D01*
X117331746Y-66490024D01*
X117329330Y-66494738D01*
X117290848Y-66552058D01*
X117242079Y-66597853D01*
X117185384Y-66630929D01*
X117123124Y-66650095D01*
X117057659Y-66654158D01*
X117022367Y-66649761D01*
X116956438Y-66629547D01*
X116900366Y-66595819D01*
X116853580Y-66548131D01*
X116817221Y-66489506D01*
X116798376Y-66434395D01*
X116792195Y-66373468D01*
X116798705Y-66312184D01*
X116816078Y-66259850D01*
X116853933Y-66197447D01*
X116903018Y-66147677D01*
X116943597Y-66120642D01*
X116966618Y-66108756D01*
X116986902Y-66101388D01*
X117009788Y-66097478D01*
X117040614Y-66095965D01*
X117068933Y-66095766D01*
X117108737Y-66096306D01*
G36*
X118791765Y-66063394D02*
G01*
X118847517Y-66087306D01*
X118896900Y-66122630D01*
X118938102Y-66167535D01*
X118969314Y-66220189D01*
X118988723Y-66278761D01*
X118994518Y-66341419D01*
X118990277Y-66382651D01*
X118976140Y-66437413D01*
X118953806Y-66482730D01*
X118919792Y-66525422D01*
X118914601Y-66530856D01*
X118864251Y-66571315D01*
X118805786Y-66599194D01*
X118742698Y-66613753D01*
X118678479Y-66614254D01*
X118616621Y-66599956D01*
X118606755Y-66596069D01*
X118554648Y-66569375D01*
X118513721Y-66536291D01*
X118480007Y-66492986D01*
X118457009Y-66451366D01*
X118442529Y-66418192D01*
X118434910Y-66388500D01*
X118432214Y-66353595D01*
X118432074Y-66339500D01*
X118439535Y-66267946D01*
X118461398Y-66204803D01*
X118496857Y-66151032D01*
X118545107Y-66107597D01*
X118605343Y-66075460D01*
X118668401Y-66057135D01*
X118731456Y-66052726D01*
X118791765Y-66063394D01*
G37*
X118791765Y-66063394D02*
X118847517Y-66087306D01*
X118896900Y-66122630D01*
X118938102Y-66167535D01*
X118969314Y-66220189D01*
X118988723Y-66278761D01*
X118994518Y-66341419D01*
X118990277Y-66382651D01*
X118976140Y-66437413D01*
X118953806Y-66482730D01*
X118919792Y-66525422D01*
X118914601Y-66530856D01*
X118864251Y-66571315D01*
X118805786Y-66599194D01*
X118742698Y-66613753D01*
X118678479Y-66614254D01*
X118616621Y-66599956D01*
X118606755Y-66596069D01*
X118554648Y-66569375D01*
X118513721Y-66536291D01*
X118480007Y-66492986D01*
X118457009Y-66451366D01*
X118442529Y-66418192D01*
X118434910Y-66388500D01*
X118432214Y-66353595D01*
X118432074Y-66339500D01*
X118439535Y-66267946D01*
X118461398Y-66204803D01*
X118496857Y-66151032D01*
X118545107Y-66107597D01*
X118605343Y-66075460D01*
X118668401Y-66057135D01*
X118731456Y-66052726D01*
X118791765Y-66063394D01*
G36*
X117481605Y-65385425D02*
G01*
X117544651Y-65400702D01*
X117603748Y-65430243D01*
X117656321Y-65473692D01*
X117661848Y-65479582D01*
X117700425Y-65532195D01*
X117723696Y-65589857D01*
X117732611Y-65655095D01*
X117732762Y-65668200D01*
X117724317Y-65730405D01*
X117701156Y-65790272D01*
X117665468Y-65844488D01*
X117619441Y-65889741D01*
X117565265Y-65922719D01*
X117564234Y-65923178D01*
X117520841Y-65936650D01*
X117470056Y-65943787D01*
X117418966Y-65944147D01*
X117374658Y-65937287D01*
X117368359Y-65935388D01*
X117332510Y-65922026D01*
X117304025Y-65906741D01*
X117276140Y-65885380D01*
X117253999Y-65865202D01*
X117211952Y-65814586D01*
X117184071Y-65757608D01*
X117170119Y-65696812D01*
X117169860Y-65634743D01*
X117183057Y-65573943D01*
X117209475Y-65516957D01*
X117248877Y-65466329D01*
X117294565Y-65428750D01*
X117353985Y-65399092D01*
X117417191Y-65384770D01*
X117481605Y-65385425D01*
G37*
X117481605Y-65385425D02*
X117544651Y-65400702D01*
X117603748Y-65430243D01*
X117656321Y-65473692D01*
X117661848Y-65479582D01*
X117700425Y-65532195D01*
X117723696Y-65589857D01*
X117732611Y-65655095D01*
X117732762Y-65668200D01*
X117724317Y-65730405D01*
X117701156Y-65790272D01*
X117665468Y-65844488D01*
X117619441Y-65889741D01*
X117565265Y-65922719D01*
X117564234Y-65923178D01*
X117520841Y-65936650D01*
X117470056Y-65943787D01*
X117418966Y-65944147D01*
X117374658Y-65937287D01*
X117368359Y-65935388D01*
X117332510Y-65922026D01*
X117304025Y-65906741D01*
X117276140Y-65885380D01*
X117253999Y-65865202D01*
X117211952Y-65814586D01*
X117184071Y-65757608D01*
X117170119Y-65696812D01*
X117169860Y-65634743D01*
X117183057Y-65573943D01*
X117209475Y-65516957D01*
X117248877Y-65466329D01*
X117294565Y-65428750D01*
X117353985Y-65399092D01*
X117417191Y-65384770D01*
X117481605Y-65385425D01*
G36*
X118321347Y-65351413D02*
G01*
X118384474Y-65368569D01*
X118440571Y-65399004D01*
X118487849Y-65441071D01*
X118524520Y-65493122D01*
X118548796Y-65553512D01*
X118558887Y-65620592D01*
X118559067Y-65631073D01*
X118551041Y-65697843D01*
X118528092Y-65759527D01*
X118491909Y-65813834D01*
X118444183Y-65858475D01*
X118386605Y-65891161D01*
X118359979Y-65900745D01*
X118303446Y-65911361D01*
X118245068Y-65911027D01*
X118199234Y-65901889D01*
X118134402Y-65873493D01*
X118080819Y-65832605D01*
X118037767Y-65778603D01*
X118019938Y-65746434D01*
X118007043Y-65717141D01*
X117999768Y-65690544D01*
X117996644Y-65659464D01*
X117996142Y-65630100D01*
X117997022Y-65592830D01*
X118000745Y-65565130D01*
X118008997Y-65539673D01*
X118023463Y-65509136D01*
X118024385Y-65507333D01*
X118063589Y-65447309D01*
X118112312Y-65400880D01*
X118169682Y-65368649D01*
X118234827Y-65351219D01*
X118252978Y-65349183D01*
X118321347Y-65351413D01*
G37*
X118321347Y-65351413D02*
X118384474Y-65368569D01*
X118440571Y-65399004D01*
X118487849Y-65441071D01*
X118524520Y-65493122D01*
X118548796Y-65553512D01*
X118558887Y-65620592D01*
X118559067Y-65631073D01*
X118551041Y-65697843D01*
X118528092Y-65759527D01*
X118491909Y-65813834D01*
X118444183Y-65858475D01*
X118386605Y-65891161D01*
X118359979Y-65900745D01*
X118303446Y-65911361D01*
X118245068Y-65911027D01*
X118199234Y-65901889D01*
X118134402Y-65873493D01*
X118080819Y-65832605D01*
X118037767Y-65778603D01*
X118019938Y-65746434D01*
X118007043Y-65717141D01*
X117999768Y-65690544D01*
X117996644Y-65659464D01*
X117996142Y-65630100D01*
X117997022Y-65592830D01*
X118000745Y-65565130D01*
X118008997Y-65539673D01*
X118023463Y-65509136D01*
X118024385Y-65507333D01*
X118063589Y-65447309D01*
X118112312Y-65400880D01*
X118169682Y-65368649D01*
X118234827Y-65351219D01*
X118252978Y-65349183D01*
X118321347Y-65351413D01*
G36*
X123006252Y-64103983D02*
G01*
X123007010Y-64208294D01*
X123007815Y-64297034D01*
X123008712Y-64371566D01*
X123009743Y-64433254D01*
X123010952Y-64483460D01*
X123012381Y-64523546D01*
X123014073Y-64554876D01*
X123016071Y-64578812D01*
X123018418Y-64596718D01*
X123021158Y-64609955D01*
X123022327Y-64614099D01*
X123046261Y-64675343D01*
X123077740Y-64724353D01*
X123118664Y-64762691D01*
X123170931Y-64791916D01*
X123236443Y-64813589D01*
X123275801Y-64822282D01*
X123309586Y-64826676D01*
X123356051Y-64829829D01*
X123410989Y-64831739D01*
X123470193Y-64832400D01*
X123529455Y-64831808D01*
X123584567Y-64829960D01*
X123631322Y-64826851D01*
X123664467Y-64822670D01*
X123750257Y-64801569D01*
X123823764Y-64772076D01*
X123883996Y-64734724D01*
X123929961Y-64690045D01*
X123941905Y-64673672D01*
X123952822Y-64656459D01*
X123962125Y-64639380D01*
X123969940Y-64620980D01*
X123976398Y-64599802D01*
X123981627Y-64574390D01*
X123985756Y-64543288D01*
X123988913Y-64505039D01*
X123991227Y-64458187D01*
X123992827Y-64401275D01*
X123993842Y-64332848D01*
X123994401Y-64251448D01*
X123994631Y-64155620D01*
X123994667Y-64076911D01*
X123994667Y-63636200D01*
X124189400Y-63636200D01*
X124189400Y-64982400D01*
X123994667Y-64982400D01*
X123994667Y-64760337D01*
X123961296Y-64810310D01*
X123922944Y-64857863D01*
X123875825Y-64897456D01*
X123817613Y-64930571D01*
X123745985Y-64958693D01*
X123712715Y-64968975D01*
X123627119Y-64988395D01*
X123530029Y-65001002D01*
X123425563Y-65006539D01*
X123317840Y-65004749D01*
X123238486Y-64998560D01*
X123142722Y-64983089D01*
X123060618Y-64958158D01*
X122991557Y-64923413D01*
X122934925Y-64878500D01*
X122890105Y-64823067D01*
X122869807Y-64787033D01*
X122858885Y-64764412D01*
X122849515Y-64743389D01*
X122841570Y-64722499D01*
X122834920Y-64700278D01*
X122829437Y-64675260D01*
X122824991Y-64645980D01*
X122821453Y-64610973D01*
X122818696Y-64568775D01*
X122816589Y-64517920D01*
X122815004Y-64456943D01*
X122813812Y-64384379D01*
X122812885Y-64298763D01*
X122812094Y-64198630D01*
X122811591Y-64125149D01*
X122808334Y-63636200D01*
X123003147Y-63636200D01*
X123006252Y-64103983D01*
G37*
X123006252Y-64103983D02*
X123007010Y-64208294D01*
X123007815Y-64297034D01*
X123008712Y-64371566D01*
X123009743Y-64433254D01*
X123010952Y-64483460D01*
X123012381Y-64523546D01*
X123014073Y-64554876D01*
X123016071Y-64578812D01*
X123018418Y-64596718D01*
X123021158Y-64609955D01*
X123022327Y-64614099D01*
X123046261Y-64675343D01*
X123077740Y-64724353D01*
X123118664Y-64762691D01*
X123170931Y-64791916D01*
X123236443Y-64813589D01*
X123275801Y-64822282D01*
X123309586Y-64826676D01*
X123356051Y-64829829D01*
X123410989Y-64831739D01*
X123470193Y-64832400D01*
X123529455Y-64831808D01*
X123584567Y-64829960D01*
X123631322Y-64826851D01*
X123664467Y-64822670D01*
X123750257Y-64801569D01*
X123823764Y-64772076D01*
X123883996Y-64734724D01*
X123929961Y-64690045D01*
X123941905Y-64673672D01*
X123952822Y-64656459D01*
X123962125Y-64639380D01*
X123969940Y-64620980D01*
X123976398Y-64599802D01*
X123981627Y-64574390D01*
X123985756Y-64543288D01*
X123988913Y-64505039D01*
X123991227Y-64458187D01*
X123992827Y-64401275D01*
X123993842Y-64332848D01*
X123994401Y-64251448D01*
X123994631Y-64155620D01*
X123994667Y-64076911D01*
X123994667Y-63636200D01*
X124189400Y-63636200D01*
X124189400Y-64982400D01*
X123994667Y-64982400D01*
X123994667Y-64760337D01*
X123961296Y-64810310D01*
X123922944Y-64857863D01*
X123875825Y-64897456D01*
X123817613Y-64930571D01*
X123745985Y-64958693D01*
X123712715Y-64968975D01*
X123627119Y-64988395D01*
X123530029Y-65001002D01*
X123425563Y-65006539D01*
X123317840Y-65004749D01*
X123238486Y-64998560D01*
X123142722Y-64983089D01*
X123060618Y-64958158D01*
X122991557Y-64923413D01*
X122934925Y-64878500D01*
X122890105Y-64823067D01*
X122869807Y-64787033D01*
X122858885Y-64764412D01*
X122849515Y-64743389D01*
X122841570Y-64722499D01*
X122834920Y-64700278D01*
X122829437Y-64675260D01*
X122824991Y-64645980D01*
X122821453Y-64610973D01*
X122818696Y-64568775D01*
X122816589Y-64517920D01*
X122815004Y-64456943D01*
X122813812Y-64384379D01*
X122812885Y-64298763D01*
X122812094Y-64198630D01*
X122811591Y-64125149D01*
X122808334Y-63636200D01*
X123003147Y-63636200D01*
X123006252Y-64103983D01*
G36*
X127441549Y-63596825D02*
G01*
X127539037Y-63602392D01*
X127631840Y-63612850D01*
X127715562Y-63627868D01*
X127764862Y-63640457D01*
X127808548Y-63656440D01*
X127857008Y-63678982D01*
X127903284Y-63704540D01*
X127940420Y-63729568D01*
X127941708Y-63730580D01*
X127971516Y-63760040D01*
X128002571Y-63800574D01*
X128031395Y-63846995D01*
X128054504Y-63894119D01*
X128058882Y-63905139D01*
X128081420Y-63979233D01*
X128098114Y-64064021D01*
X128109040Y-64156427D01*
X128114273Y-64253381D01*
X128113888Y-64351807D01*
X128107960Y-64448634D01*
X128096564Y-64540789D01*
X128079776Y-64625198D01*
X128057671Y-64698788D01*
X128038365Y-64743626D01*
X127996391Y-64808268D01*
X127940609Y-64865472D01*
X127873077Y-64913714D01*
X127795855Y-64951471D01*
X127728169Y-64973182D01*
X127660637Y-64986694D01*
X127580851Y-64996913D01*
X127493208Y-65003633D01*
X127402105Y-65006648D01*
X127311939Y-65005752D01*
X127227105Y-65000739D01*
X127199300Y-64997953D01*
X127115023Y-64985081D01*
X127035834Y-64966476D01*
X126966332Y-64943327D01*
X126935177Y-64929710D01*
X126885566Y-64899756D01*
X126836301Y-64859644D01*
X126792318Y-64814034D01*
X126758555Y-64767585D01*
X126753058Y-64757847D01*
X126721077Y-64682984D01*
X126696925Y-64593680D01*
X126680697Y-64490555D01*
X126672489Y-64374234D01*
X126672479Y-64360234D01*
X126865832Y-64360234D01*
X126867220Y-64423324D01*
X126870080Y-64479765D01*
X126874469Y-64526191D01*
X126876822Y-64542133D01*
X126893321Y-64615106D01*
X126916546Y-64675251D01*
X126947966Y-64723785D01*
X126989050Y-64761930D01*
X127041268Y-64790905D01*
X127106088Y-64811929D01*
X127184981Y-64826222D01*
X127224419Y-64830681D01*
X127263360Y-64833088D01*
X127314156Y-64834254D01*
X127372675Y-64834277D01*
X127434786Y-64833256D01*
X127496357Y-64831290D01*
X127553257Y-64828478D01*
X127601353Y-64824918D01*
X127635561Y-64820864D01*
X127710037Y-64802274D01*
X127772071Y-64772293D01*
X127821975Y-64730669D01*
X127860060Y-64677148D01*
X127884153Y-64619669D01*
X127900647Y-64552631D01*
X127912483Y-64473528D01*
X127919626Y-64386584D01*
X127922040Y-64296025D01*
X127919689Y-64206077D01*
X127912538Y-64120964D01*
X127900550Y-64044912D01*
X127889407Y-63999813D01*
X127866685Y-63939889D01*
X127836674Y-63891515D01*
X127797702Y-63853511D01*
X127748098Y-63824695D01*
X127686191Y-63803886D01*
X127610310Y-63789902D01*
X127588767Y-63787313D01*
X127547149Y-63784121D01*
X127495030Y-63782215D01*
X127435736Y-63781512D01*
X127372591Y-63781931D01*
X127308918Y-63783388D01*
X127248041Y-63785800D01*
X127193286Y-63789085D01*
X127147976Y-63793161D01*
X127115436Y-63797943D01*
X127109699Y-63799236D01*
X127046698Y-63819362D01*
X126996247Y-63846026D01*
X126956197Y-63881442D01*
X126924400Y-63927823D01*
X126898707Y-63987383D01*
X126885310Y-64030429D01*
X126879033Y-64062774D01*
X126873894Y-64108653D01*
X126869948Y-64164703D01*
X126867252Y-64227559D01*
X126865862Y-64293857D01*
X126865832Y-64360234D01*
X126672479Y-64360234D01*
X126672395Y-64245337D01*
X126672770Y-64233652D01*
X126680586Y-64115813D01*
X126695896Y-64012643D01*
X126719512Y-63923254D01*
X126752247Y-63846756D01*
X126794915Y-63782259D01*
X126848327Y-63728874D01*
X126913295Y-63685711D01*
X126990634Y-63651881D01*
X127081155Y-63626494D01*
X127185671Y-63608660D01*
X127250100Y-63601688D01*
X127343771Y-63596480D01*
X127441549Y-63596825D01*
G37*
X127441549Y-63596825D02*
X127539037Y-63602392D01*
X127631840Y-63612850D01*
X127715562Y-63627868D01*
X127764862Y-63640457D01*
X127808548Y-63656440D01*
X127857008Y-63678982D01*
X127903284Y-63704540D01*
X127940420Y-63729568D01*
X127941708Y-63730580D01*
X127971516Y-63760040D01*
X128002571Y-63800574D01*
X128031395Y-63846995D01*
X128054504Y-63894119D01*
X128058882Y-63905139D01*
X128081420Y-63979233D01*
X128098114Y-64064021D01*
X128109040Y-64156427D01*
X128114273Y-64253381D01*
X128113888Y-64351807D01*
X128107960Y-64448634D01*
X128096564Y-64540789D01*
X128079776Y-64625198D01*
X128057671Y-64698788D01*
X128038365Y-64743626D01*
X127996391Y-64808268D01*
X127940609Y-64865472D01*
X127873077Y-64913714D01*
X127795855Y-64951471D01*
X127728169Y-64973182D01*
X127660637Y-64986694D01*
X127580851Y-64996913D01*
X127493208Y-65003633D01*
X127402105Y-65006648D01*
X127311939Y-65005752D01*
X127227105Y-65000739D01*
X127199300Y-64997953D01*
X127115023Y-64985081D01*
X127035834Y-64966476D01*
X126966332Y-64943327D01*
X126935177Y-64929710D01*
X126885566Y-64899756D01*
X126836301Y-64859644D01*
X126792318Y-64814034D01*
X126758555Y-64767585D01*
X126753058Y-64757847D01*
X126721077Y-64682984D01*
X126696925Y-64593680D01*
X126680697Y-64490555D01*
X126672489Y-64374234D01*
X126672479Y-64360234D01*
X126865832Y-64360234D01*
X126867220Y-64423324D01*
X126870080Y-64479765D01*
X126874469Y-64526191D01*
X126876822Y-64542133D01*
X126893321Y-64615106D01*
X126916546Y-64675251D01*
X126947966Y-64723785D01*
X126989050Y-64761930D01*
X127041268Y-64790905D01*
X127106088Y-64811929D01*
X127184981Y-64826222D01*
X127224419Y-64830681D01*
X127263360Y-64833088D01*
X127314156Y-64834254D01*
X127372675Y-64834277D01*
X127434786Y-64833256D01*
X127496357Y-64831290D01*
X127553257Y-64828478D01*
X127601353Y-64824918D01*
X127635561Y-64820864D01*
X127710037Y-64802274D01*
X127772071Y-64772293D01*
X127821975Y-64730669D01*
X127860060Y-64677148D01*
X127884153Y-64619669D01*
X127900647Y-64552631D01*
X127912483Y-64473528D01*
X127919626Y-64386584D01*
X127922040Y-64296025D01*
X127919689Y-64206077D01*
X127912538Y-64120964D01*
X127900550Y-64044912D01*
X127889407Y-63999813D01*
X127866685Y-63939889D01*
X127836674Y-63891515D01*
X127797702Y-63853511D01*
X127748098Y-63824695D01*
X127686191Y-63803886D01*
X127610310Y-63789902D01*
X127588767Y-63787313D01*
X127547149Y-63784121D01*
X127495030Y-63782215D01*
X127435736Y-63781512D01*
X127372591Y-63781931D01*
X127308918Y-63783388D01*
X127248041Y-63785800D01*
X127193286Y-63789085D01*
X127147976Y-63793161D01*
X127115436Y-63797943D01*
X127109699Y-63799236D01*
X127046698Y-63819362D01*
X126996247Y-63846026D01*
X126956197Y-63881442D01*
X126924400Y-63927823D01*
X126898707Y-63987383D01*
X126885310Y-64030429D01*
X126879033Y-64062774D01*
X126873894Y-64108653D01*
X126869948Y-64164703D01*
X126867252Y-64227559D01*
X126865862Y-64293857D01*
X126865832Y-64360234D01*
X126672479Y-64360234D01*
X126672395Y-64245337D01*
X126672770Y-64233652D01*
X126680586Y-64115813D01*
X126695896Y-64012643D01*
X126719512Y-63923254D01*
X126752247Y-63846756D01*
X126794915Y-63782259D01*
X126848327Y-63728874D01*
X126913295Y-63685711D01*
X126990634Y-63651881D01*
X127081155Y-63626494D01*
X127185671Y-63608660D01*
X127250100Y-63601688D01*
X127343771Y-63596480D01*
X127441549Y-63596825D01*
G36*
X120151899Y-63180933D02*
G01*
X120313865Y-63183233D01*
X120772083Y-63968110D01*
X120833921Y-64073951D01*
X120893404Y-64175601D01*
X120949974Y-64272113D01*
X121003070Y-64362542D01*
X121052134Y-64445940D01*
X121096608Y-64521362D01*
X121135933Y-64587860D01*
X121169549Y-64644489D01*
X121196898Y-64690303D01*
X121217421Y-64724354D01*
X121230560Y-64745696D01*
X121235754Y-64753384D01*
X121235784Y-64753394D01*
X121240716Y-64746295D01*
X121253608Y-64725525D01*
X121273894Y-64692040D01*
X121301007Y-64646798D01*
X121334381Y-64590757D01*
X121373447Y-64524874D01*
X121417641Y-64450106D01*
X121466393Y-64367412D01*
X121519138Y-64277747D01*
X121575309Y-64182071D01*
X121634339Y-64081340D01*
X121687962Y-63989683D01*
X121749328Y-63884753D01*
X121808506Y-63783642D01*
X121864911Y-63687349D01*
X121917958Y-63596869D01*
X121967060Y-63513200D01*
X122011631Y-63437339D01*
X122051085Y-63370281D01*
X122084836Y-63313025D01*
X122112298Y-63266567D01*
X122132885Y-63231904D01*
X122146012Y-63210032D01*
X122150838Y-63202283D01*
X122167020Y-63179000D01*
X122470667Y-63179000D01*
X122470667Y-64982400D01*
X122276019Y-64982400D01*
X122273859Y-64172693D01*
X122271700Y-63362987D01*
X121805290Y-64170577D01*
X121338879Y-64978166D01*
X121137167Y-64982676D01*
X120663034Y-64161099D01*
X120188900Y-63339521D01*
X120186742Y-64160960D01*
X120184583Y-64982400D01*
X119989934Y-64982400D01*
X119989934Y-63178634D01*
X120151899Y-63180933D01*
G37*
X120151899Y-63180933D02*
X120313865Y-63183233D01*
X120772083Y-63968110D01*
X120833921Y-64073951D01*
X120893404Y-64175601D01*
X120949974Y-64272113D01*
X121003070Y-64362542D01*
X121052134Y-64445940D01*
X121096608Y-64521362D01*
X121135933Y-64587860D01*
X121169549Y-64644489D01*
X121196898Y-64690303D01*
X121217421Y-64724354D01*
X121230560Y-64745696D01*
X121235754Y-64753384D01*
X121235784Y-64753394D01*
X121240716Y-64746295D01*
X121253608Y-64725525D01*
X121273894Y-64692040D01*
X121301007Y-64646798D01*
X121334381Y-64590757D01*
X121373447Y-64524874D01*
X121417641Y-64450106D01*
X121466393Y-64367412D01*
X121519138Y-64277747D01*
X121575309Y-64182071D01*
X121634339Y-64081340D01*
X121687962Y-63989683D01*
X121749328Y-63884753D01*
X121808506Y-63783642D01*
X121864911Y-63687349D01*
X121917958Y-63596869D01*
X121967060Y-63513200D01*
X122011631Y-63437339D01*
X122051085Y-63370281D01*
X122084836Y-63313025D01*
X122112298Y-63266567D01*
X122132885Y-63231904D01*
X122146012Y-63210032D01*
X122150838Y-63202283D01*
X122167020Y-63179000D01*
X122470667Y-63179000D01*
X122470667Y-64982400D01*
X122276019Y-64982400D01*
X122273859Y-64172693D01*
X122271700Y-63362987D01*
X121805290Y-64170577D01*
X121338879Y-64978166D01*
X121137167Y-64982676D01*
X120663034Y-64161099D01*
X120188900Y-63339521D01*
X120186742Y-64160960D01*
X120184583Y-64982400D01*
X119989934Y-64982400D01*
X119989934Y-63178634D01*
X120151899Y-63180933D01*
G36*
X124714333Y-64982400D02*
G01*
X124519600Y-64982400D01*
X124519600Y-63636200D01*
X124714333Y-63636200D01*
X124714333Y-64982400D01*
G37*
X124714333Y-64982400D02*
X124519600Y-64982400D01*
X124519600Y-63636200D01*
X124714333Y-63636200D01*
X124714333Y-64982400D01*
G36*
X125937944Y-63600394D02*
G01*
X125951309Y-63601470D01*
X126050369Y-63613680D01*
X126134800Y-63632437D01*
X126205911Y-63658577D01*
X126265014Y-63692934D01*
X126313419Y-63736340D01*
X126352436Y-63789630D01*
X126383377Y-63853639D01*
X126394038Y-63883191D01*
X126402168Y-63909941D01*
X126409123Y-63938382D01*
X126414988Y-63969995D01*
X126419850Y-64006259D01*
X126423794Y-64048652D01*
X126426909Y-64098655D01*
X126429280Y-64157746D01*
X126430993Y-64227405D01*
X126432136Y-64309112D01*
X126432793Y-64404346D01*
X126433054Y-64514586D01*
X126433067Y-64550932D01*
X126433067Y-64982400D01*
X126238334Y-64982400D01*
X126238334Y-64565194D01*
X126238148Y-64473877D01*
X126237614Y-64387519D01*
X126236764Y-64307906D01*
X126235629Y-64236826D01*
X126234243Y-64176063D01*
X126232638Y-64127404D01*
X126230846Y-64092635D01*
X126229490Y-64077460D01*
X126215377Y-64001593D01*
X126193064Y-63939636D01*
X126161242Y-63890031D01*
X126118602Y-63851219D01*
X126063833Y-63821642D01*
X125996218Y-63799888D01*
X125959301Y-63793520D01*
X125909468Y-63788853D01*
X125850650Y-63785890D01*
X125786779Y-63784635D01*
X125721787Y-63785091D01*
X125659606Y-63787261D01*
X125604168Y-63791149D01*
X125559404Y-63796759D01*
X125545356Y-63799488D01*
X125463348Y-63823829D01*
X125393920Y-63857052D01*
X125338184Y-63898586D01*
X125323608Y-63913334D01*
X125309087Y-63929241D01*
X125296685Y-63943685D01*
X125286228Y-63958086D01*
X125277543Y-63973864D01*
X125270453Y-63992438D01*
X125264785Y-64015228D01*
X125260363Y-64043655D01*
X125257015Y-64079139D01*
X125254564Y-64123098D01*
X125252837Y-64176954D01*
X125251658Y-64242126D01*
X125250854Y-64320034D01*
X125250249Y-64412098D01*
X125249698Y-64514616D01*
X125247186Y-64982400D01*
X125053000Y-64982400D01*
X125053000Y-63636200D01*
X125247733Y-63636200D01*
X125248088Y-63744150D01*
X125248311Y-63788305D01*
X125248884Y-63817590D01*
X125250182Y-63834069D01*
X125252578Y-63839806D01*
X125256447Y-63836864D01*
X125262160Y-63827307D01*
X125262905Y-63825963D01*
X125294213Y-63781367D01*
X125336586Y-63737521D01*
X125384662Y-63699279D01*
X125433078Y-63671495D01*
X125434000Y-63671085D01*
X125518804Y-63640442D01*
X125615251Y-63617560D01*
X125719691Y-63602930D01*
X125828472Y-63597044D01*
X125937944Y-63600394D01*
G37*
X125937944Y-63600394D02*
X125951309Y-63601470D01*
X126050369Y-63613680D01*
X126134800Y-63632437D01*
X126205911Y-63658577D01*
X126265014Y-63692934D01*
X126313419Y-63736340D01*
X126352436Y-63789630D01*
X126383377Y-63853639D01*
X126394038Y-63883191D01*
X126402168Y-63909941D01*
X126409123Y-63938382D01*
X126414988Y-63969995D01*
X126419850Y-64006259D01*
X126423794Y-64048652D01*
X126426909Y-64098655D01*
X126429280Y-64157746D01*
X126430993Y-64227405D01*
X126432136Y-64309112D01*
X126432793Y-64404346D01*
X126433054Y-64514586D01*
X126433067Y-64550932D01*
X126433067Y-64982400D01*
X126238334Y-64982400D01*
X126238334Y-64565194D01*
X126238148Y-64473877D01*
X126237614Y-64387519D01*
X126236764Y-64307906D01*
X126235629Y-64236826D01*
X126234243Y-64176063D01*
X126232638Y-64127404D01*
X126230846Y-64092635D01*
X126229490Y-64077460D01*
X126215377Y-64001593D01*
X126193064Y-63939636D01*
X126161242Y-63890031D01*
X126118602Y-63851219D01*
X126063833Y-63821642D01*
X125996218Y-63799888D01*
X125959301Y-63793520D01*
X125909468Y-63788853D01*
X125850650Y-63785890D01*
X125786779Y-63784635D01*
X125721787Y-63785091D01*
X125659606Y-63787261D01*
X125604168Y-63791149D01*
X125559404Y-63796759D01*
X125545356Y-63799488D01*
X125463348Y-63823829D01*
X125393920Y-63857052D01*
X125338184Y-63898586D01*
X125323608Y-63913334D01*
X125309087Y-63929241D01*
X125296685Y-63943685D01*
X125286228Y-63958086D01*
X125277543Y-63973864D01*
X125270453Y-63992438D01*
X125264785Y-64015228D01*
X125260363Y-64043655D01*
X125257015Y-64079139D01*
X125254564Y-64123098D01*
X125252837Y-64176954D01*
X125251658Y-64242126D01*
X125250854Y-64320034D01*
X125250249Y-64412098D01*
X125249698Y-64514616D01*
X125247186Y-64982400D01*
X125053000Y-64982400D01*
X125053000Y-63636200D01*
X125247733Y-63636200D01*
X125248088Y-63744150D01*
X125248311Y-63788305D01*
X125248884Y-63817590D01*
X125250182Y-63834069D01*
X125252578Y-63839806D01*
X125256447Y-63836864D01*
X125262160Y-63827307D01*
X125262905Y-63825963D01*
X125294213Y-63781367D01*
X125336586Y-63737521D01*
X125384662Y-63699279D01*
X125433078Y-63671495D01*
X125434000Y-63671085D01*
X125518804Y-63640442D01*
X125615251Y-63617560D01*
X125719691Y-63602930D01*
X125828472Y-63597044D01*
X125937944Y-63600394D01*
G36*
X124714333Y-63407600D02*
G01*
X124519109Y-63407600D01*
X124521471Y-63295416D01*
X124523833Y-63183233D01*
X124714333Y-63178445D01*
X124714333Y-63407600D01*
G37*
X124714333Y-63407600D02*
X124519109Y-63407600D01*
X124521471Y-63295416D01*
X124523833Y-63183233D01*
X124714333Y-63178445D01*
X124714333Y-63407600D01*
D12*
%TO.C,D2*%
X111545000Y-79985000D02*
X111545000Y-76835000D01*
X113245000Y-79985000D02*
X113245000Y-76835000D01*
X111545000Y-79985000D02*
X113245000Y-79985000D01*
%TO.C,R4*%
X94082776Y-62342500D02*
X94592224Y-62342500D01*
X94082776Y-63387500D02*
X94592224Y-63387500D01*
%TO.C,R3*%
X90424724Y-63387500D02*
X89915276Y-63387500D01*
X90424724Y-62342500D02*
X89915276Y-62342500D01*
%TO.C,U1*%
X114205000Y-74955000D02*
X116655000Y-74955000D01*
X116005000Y-71735000D02*
X114205000Y-71735000D01*
%TO.C,R2*%
X106942224Y-85577500D02*
X106432776Y-85577500D01*
X106942224Y-86622500D02*
X106432776Y-86622500D01*
%TO.C,R1*%
X101942224Y-85677500D02*
X101432776Y-85677500D01*
X101942224Y-86722500D02*
X101432776Y-86722500D01*
%TO.C,J2*%
X109160000Y-87690000D02*
X109160000Y-86360000D01*
X110490000Y-87690000D02*
X109160000Y-87690000D01*
X109160000Y-85090000D02*
X109160000Y-82490000D01*
X111760000Y-85090000D02*
X109160000Y-85090000D01*
X111760000Y-87690000D02*
X111760000Y-85090000D01*
X109160000Y-82490000D02*
X121980000Y-82490000D01*
X111760000Y-87690000D02*
X121980000Y-87690000D01*
X121980000Y-87690000D02*
X121980000Y-82490000D01*
%TO.C,D3*%
X127850000Y-86350000D02*
X127850000Y-83200000D01*
X129550000Y-86350000D02*
X129550000Y-83200000D01*
X127850000Y-86350000D02*
X129550000Y-86350000D01*
%TO.C,D1*%
X122570000Y-80225000D02*
X119420000Y-80225000D01*
X122570000Y-78525000D02*
X119420000Y-78525000D01*
X122570000Y-80225000D02*
X122570000Y-78525000D01*
%TO.C,C5*%
X116351267Y-78230000D02*
X116058733Y-78230000D01*
X116351267Y-79250000D02*
X116058733Y-79250000D01*
%TO.C,C4*%
X116351267Y-76325000D02*
X116058733Y-76325000D01*
X116351267Y-77345000D02*
X116058733Y-77345000D01*
%TO.C,C3*%
X111885000Y-73106233D02*
X111885000Y-73398767D01*
X112905000Y-73106233D02*
X112905000Y-73398767D01*
%TO.C,C2*%
X119461233Y-74805000D02*
X119753767Y-74805000D01*
X119461233Y-73785000D02*
X119753767Y-73785000D01*
%TO.C,C1*%
X119461233Y-72900000D02*
X119753767Y-72900000D01*
X119461233Y-71880000D02*
X119753767Y-71880000D01*
%TO.C,J1*%
X129600000Y-68520000D02*
X124400000Y-68520000D01*
X129600000Y-78740000D02*
X129600000Y-68520000D01*
X124400000Y-81340000D02*
X124400000Y-68520000D01*
X129600000Y-78740000D02*
X127000000Y-78740000D01*
X127000000Y-78740000D02*
X127000000Y-81340000D01*
X127000000Y-81340000D02*
X124400000Y-81340000D01*
X129600000Y-80010000D02*
X129600000Y-81340000D01*
X129600000Y-81340000D02*
X128270000Y-81340000D01*
D14*
%TO.C,A1*%
X87630000Y-83530000D02*
X87630000Y-80664210D01*
X87337106Y-79957110D02*
X86942894Y-79562890D01*
X86650000Y-78855790D02*
X86650000Y-71024210D01*
X86942894Y-70317110D02*
X87337106Y-69922890D01*
X87630000Y-69215790D02*
X87630000Y-66330000D01*
X88030000Y-65930000D02*
X107550000Y-65930000D01*
X107550000Y-83930000D02*
X88030000Y-83930000D01*
X107950000Y-83530000D02*
X107950000Y-66330000D01*
X88030000Y-83930000D02*
G75*
G02*
X87630000Y-83530000I0J400000D01*
G01*
X107950000Y-83530000D02*
G75*
G02*
X107550000Y-83930000I-400000J0D01*
G01*
X107550000Y-65930000D02*
G75*
G02*
X107950000Y-66330000I0J-400000D01*
G01*
X87630000Y-66330000D02*
G75*
G02*
X88030000Y-65930000I400000J0D01*
G01*
X87337106Y-69922890D02*
G75*
G03*
X87630000Y-69215790I-707098J707104D01*
G01*
X86650000Y-71024210D02*
G75*
G02*
X86942894Y-70317110I999992J-4D01*
G01*
X86942894Y-79562890D02*
G75*
G02*
X86650000Y-78855790I707098J707104D01*
G01*
X87630000Y-80664210D02*
G75*
G03*
X87337106Y-79957110I-999992J-4D01*
G01*
%TD*%
M02*
