M48
; DRILL file {KiCad (5.1.10)-1} date 11/13/21 20:11:32
; FORMAT={-:-/ absolute / metric / decimal}
; #@! TF.CreationDate,2021-11-13T20:11:32+01:00
; #@! TF.GenerationSoftware,Kicad,Pcbnew,(5.1.10)-1
; #@! TF.FileFunction,Plated,1,2,PTH
FMAT,2
METRIC
T1C0.400
T2C1.000
%
G90
G05
T1
X88.199Y-62.865
X91.44Y-85.664
X93.345Y-70.485
X93.98Y-67.945
X96.52Y-67.945
X96.52Y-70.485
X99.7Y-86.2
X104.14Y-66.76
X104.765Y-74.93
X106.045Y-62.32
X107.7Y-82.08
X112.395Y-75.565
X115.331Y-77.79
X120.487Y-73.376
T2
X110.49Y-83.82
X110.49Y-86.36
X113.03Y-83.82
X113.03Y-86.36
X115.57Y-83.82
X115.57Y-86.36
X118.11Y-83.82
X118.11Y-86.36
X120.65Y-83.82
X120.65Y-86.36
X125.73Y-69.85
X125.73Y-72.39
X125.73Y-74.93
X125.73Y-77.47
X125.73Y-80.01
X125.73Y-83.82
X125.73Y-86.36
X128.27Y-69.85
X128.27Y-72.39
X128.27Y-74.93
X128.27Y-77.47
X128.27Y-80.01
T0
M30
