%TF.GenerationSoftware,KiCad,Pcbnew,(5.1.10)-1*%
%TF.CreationDate,2021-11-13T20:11:30+01:00*%
%TF.ProjectId,Muino_debugger,4d75696e-6f5f-4646-9562-75676765722e,rev?*%
%TF.SameCoordinates,Original*%
%TF.FileFunction,Paste,Top*%
%TF.FilePolarity,Positive*%
%FSLAX46Y46*%
G04 Gerber Fmt 4.6, Leading zero omitted, Abs format (unit mm)*
G04 Created by KiCad (PCBNEW (5.1.10)-1) date 2021-11-13 20:11:30*
%MOMM*%
%LPD*%
G01*
G04 APERTURE LIST*
%ADD10R,1.000000X1.000000*%
%ADD11R,1.060000X0.650000*%
G04 APERTURE END LIST*
D10*
%TO.C,D2*%
X112395000Y-76835000D03*
X112395000Y-79335000D03*
%TD*%
%TO.C,R4*%
G36*
G01*
X94762500Y-63102500D02*
X94762500Y-62627500D01*
G75*
G02*
X95000000Y-62390000I237500J0D01*
G01*
X95500000Y-62390000D01*
G75*
G02*
X95737500Y-62627500I0J-237500D01*
G01*
X95737500Y-63102500D01*
G75*
G02*
X95500000Y-63340000I-237500J0D01*
G01*
X95000000Y-63340000D01*
G75*
G02*
X94762500Y-63102500I0J237500D01*
G01*
G37*
G36*
G01*
X92937500Y-63102500D02*
X92937500Y-62627500D01*
G75*
G02*
X93175000Y-62390000I237500J0D01*
G01*
X93675000Y-62390000D01*
G75*
G02*
X93912500Y-62627500I0J-237500D01*
G01*
X93912500Y-63102500D01*
G75*
G02*
X93675000Y-63340000I-237500J0D01*
G01*
X93175000Y-63340000D01*
G75*
G02*
X92937500Y-63102500I0J237500D01*
G01*
G37*
%TD*%
%TO.C,R3*%
G36*
G01*
X89745000Y-62627500D02*
X89745000Y-63102500D01*
G75*
G02*
X89507500Y-63340000I-237500J0D01*
G01*
X89007500Y-63340000D01*
G75*
G02*
X88770000Y-63102500I0J237500D01*
G01*
X88770000Y-62627500D01*
G75*
G02*
X89007500Y-62390000I237500J0D01*
G01*
X89507500Y-62390000D01*
G75*
G02*
X89745000Y-62627500I0J-237500D01*
G01*
G37*
G36*
G01*
X91570000Y-62627500D02*
X91570000Y-63102500D01*
G75*
G02*
X91332500Y-63340000I-237500J0D01*
G01*
X90832500Y-63340000D01*
G75*
G02*
X90595000Y-63102500I0J237500D01*
G01*
X90595000Y-62627500D01*
G75*
G02*
X90832500Y-62390000I237500J0D01*
G01*
X91332500Y-62390000D01*
G75*
G02*
X91570000Y-62627500I0J-237500D01*
G01*
G37*
%TD*%
D11*
%TO.C,U1*%
X114005000Y-74295000D03*
X114005000Y-72395000D03*
X116205000Y-72395000D03*
X116205000Y-73345000D03*
X116205000Y-74295000D03*
%TD*%
%TO.C,R2*%
G36*
G01*
X106262500Y-85862500D02*
X106262500Y-86337500D01*
G75*
G02*
X106025000Y-86575000I-237500J0D01*
G01*
X105525000Y-86575000D01*
G75*
G02*
X105287500Y-86337500I0J237500D01*
G01*
X105287500Y-85862500D01*
G75*
G02*
X105525000Y-85625000I237500J0D01*
G01*
X106025000Y-85625000D01*
G75*
G02*
X106262500Y-85862500I0J-237500D01*
G01*
G37*
G36*
G01*
X108087500Y-85862500D02*
X108087500Y-86337500D01*
G75*
G02*
X107850000Y-86575000I-237500J0D01*
G01*
X107350000Y-86575000D01*
G75*
G02*
X107112500Y-86337500I0J237500D01*
G01*
X107112500Y-85862500D01*
G75*
G02*
X107350000Y-85625000I237500J0D01*
G01*
X107850000Y-85625000D01*
G75*
G02*
X108087500Y-85862500I0J-237500D01*
G01*
G37*
%TD*%
%TO.C,R1*%
G36*
G01*
X101262500Y-85962500D02*
X101262500Y-86437500D01*
G75*
G02*
X101025000Y-86675000I-237500J0D01*
G01*
X100525000Y-86675000D01*
G75*
G02*
X100287500Y-86437500I0J237500D01*
G01*
X100287500Y-85962500D01*
G75*
G02*
X100525000Y-85725000I237500J0D01*
G01*
X101025000Y-85725000D01*
G75*
G02*
X101262500Y-85962500I0J-237500D01*
G01*
G37*
G36*
G01*
X103087500Y-85962500D02*
X103087500Y-86437500D01*
G75*
G02*
X102850000Y-86675000I-237500J0D01*
G01*
X102350000Y-86675000D01*
G75*
G02*
X102112500Y-86437500I0J237500D01*
G01*
X102112500Y-85962500D01*
G75*
G02*
X102350000Y-85725000I237500J0D01*
G01*
X102850000Y-85725000D01*
G75*
G02*
X103087500Y-85962500I0J-237500D01*
G01*
G37*
%TD*%
D10*
%TO.C,D3*%
X128700000Y-83200000D03*
X128700000Y-85700000D03*
%TD*%
%TO.C,D1*%
X119420000Y-79375000D03*
X121920000Y-79375000D03*
%TD*%
%TO.C,C5*%
G36*
G01*
X115880000Y-78502500D02*
X115880000Y-78977500D01*
G75*
G02*
X115642500Y-79215000I-237500J0D01*
G01*
X115042500Y-79215000D01*
G75*
G02*
X114805000Y-78977500I0J237500D01*
G01*
X114805000Y-78502500D01*
G75*
G02*
X115042500Y-78265000I237500J0D01*
G01*
X115642500Y-78265000D01*
G75*
G02*
X115880000Y-78502500I0J-237500D01*
G01*
G37*
G36*
G01*
X117605000Y-78502500D02*
X117605000Y-78977500D01*
G75*
G02*
X117367500Y-79215000I-237500J0D01*
G01*
X116767500Y-79215000D01*
G75*
G02*
X116530000Y-78977500I0J237500D01*
G01*
X116530000Y-78502500D01*
G75*
G02*
X116767500Y-78265000I237500J0D01*
G01*
X117367500Y-78265000D01*
G75*
G02*
X117605000Y-78502500I0J-237500D01*
G01*
G37*
%TD*%
%TO.C,C4*%
G36*
G01*
X115880000Y-76597500D02*
X115880000Y-77072500D01*
G75*
G02*
X115642500Y-77310000I-237500J0D01*
G01*
X115042500Y-77310000D01*
G75*
G02*
X114805000Y-77072500I0J237500D01*
G01*
X114805000Y-76597500D01*
G75*
G02*
X115042500Y-76360000I237500J0D01*
G01*
X115642500Y-76360000D01*
G75*
G02*
X115880000Y-76597500I0J-237500D01*
G01*
G37*
G36*
G01*
X117605000Y-76597500D02*
X117605000Y-77072500D01*
G75*
G02*
X117367500Y-77310000I-237500J0D01*
G01*
X116767500Y-77310000D01*
G75*
G02*
X116530000Y-77072500I0J237500D01*
G01*
X116530000Y-76597500D01*
G75*
G02*
X116767500Y-76360000I237500J0D01*
G01*
X117367500Y-76360000D01*
G75*
G02*
X117605000Y-76597500I0J-237500D01*
G01*
G37*
%TD*%
%TO.C,C3*%
G36*
G01*
X112157500Y-73577500D02*
X112632500Y-73577500D01*
G75*
G02*
X112870000Y-73815000I0J-237500D01*
G01*
X112870000Y-74415000D01*
G75*
G02*
X112632500Y-74652500I-237500J0D01*
G01*
X112157500Y-74652500D01*
G75*
G02*
X111920000Y-74415000I0J237500D01*
G01*
X111920000Y-73815000D01*
G75*
G02*
X112157500Y-73577500I237500J0D01*
G01*
G37*
G36*
G01*
X112157500Y-71852500D02*
X112632500Y-71852500D01*
G75*
G02*
X112870000Y-72090000I0J-237500D01*
G01*
X112870000Y-72690000D01*
G75*
G02*
X112632500Y-72927500I-237500J0D01*
G01*
X112157500Y-72927500D01*
G75*
G02*
X111920000Y-72690000I0J237500D01*
G01*
X111920000Y-72090000D01*
G75*
G02*
X112157500Y-71852500I237500J0D01*
G01*
G37*
%TD*%
%TO.C,C2*%
G36*
G01*
X119932500Y-74532500D02*
X119932500Y-74057500D01*
G75*
G02*
X120170000Y-73820000I237500J0D01*
G01*
X120770000Y-73820000D01*
G75*
G02*
X121007500Y-74057500I0J-237500D01*
G01*
X121007500Y-74532500D01*
G75*
G02*
X120770000Y-74770000I-237500J0D01*
G01*
X120170000Y-74770000D01*
G75*
G02*
X119932500Y-74532500I0J237500D01*
G01*
G37*
G36*
G01*
X118207500Y-74532500D02*
X118207500Y-74057500D01*
G75*
G02*
X118445000Y-73820000I237500J0D01*
G01*
X119045000Y-73820000D01*
G75*
G02*
X119282500Y-74057500I0J-237500D01*
G01*
X119282500Y-74532500D01*
G75*
G02*
X119045000Y-74770000I-237500J0D01*
G01*
X118445000Y-74770000D01*
G75*
G02*
X118207500Y-74532500I0J237500D01*
G01*
G37*
%TD*%
%TO.C,C1*%
G36*
G01*
X119932500Y-72627500D02*
X119932500Y-72152500D01*
G75*
G02*
X120170000Y-71915000I237500J0D01*
G01*
X120770000Y-71915000D01*
G75*
G02*
X121007500Y-72152500I0J-237500D01*
G01*
X121007500Y-72627500D01*
G75*
G02*
X120770000Y-72865000I-237500J0D01*
G01*
X120170000Y-72865000D01*
G75*
G02*
X119932500Y-72627500I0J237500D01*
G01*
G37*
G36*
G01*
X118207500Y-72627500D02*
X118207500Y-72152500D01*
G75*
G02*
X118445000Y-71915000I237500J0D01*
G01*
X119045000Y-71915000D01*
G75*
G02*
X119282500Y-72152500I0J-237500D01*
G01*
X119282500Y-72627500D01*
G75*
G02*
X119045000Y-72865000I-237500J0D01*
G01*
X118445000Y-72865000D01*
G75*
G02*
X118207500Y-72627500I0J237500D01*
G01*
G37*
%TD*%
%TO.C,A1*%
G36*
G01*
X105620000Y-72808000D02*
X105620000Y-71972000D01*
G75*
G02*
X106152000Y-71440000I532000J0D01*
G01*
X108088000Y-71440000D01*
G75*
G02*
X108620000Y-71972000I0J-532000D01*
G01*
X108620000Y-72808000D01*
G75*
G02*
X108088000Y-73340000I-532000J0D01*
G01*
X106152000Y-73340000D01*
G75*
G02*
X105620000Y-72808000I0J532000D01*
G01*
G37*
G36*
G01*
X105620000Y-77888000D02*
X105620000Y-77052000D01*
G75*
G02*
X106152000Y-76520000I532000J0D01*
G01*
X108088000Y-76520000D01*
G75*
G02*
X108620000Y-77052000I0J-532000D01*
G01*
X108620000Y-77888000D01*
G75*
G02*
X108088000Y-78420000I-532000J0D01*
G01*
X106152000Y-78420000D01*
G75*
G02*
X105620000Y-77888000I0J532000D01*
G01*
G37*
G36*
G01*
X105620000Y-75348000D02*
X105620000Y-74512000D01*
G75*
G02*
X106152000Y-73980000I532000J0D01*
G01*
X108088000Y-73980000D01*
G75*
G02*
X108620000Y-74512000I0J-532000D01*
G01*
X108620000Y-75348000D01*
G75*
G02*
X108088000Y-75880000I-532000J0D01*
G01*
X106152000Y-75880000D01*
G75*
G02*
X105620000Y-75348000I0J532000D01*
G01*
G37*
G36*
G01*
X105730000Y-84068000D02*
X105730000Y-82132000D01*
G75*
G02*
X106262000Y-81600000I532000J0D01*
G01*
X107098000Y-81600000D01*
G75*
G02*
X107630000Y-82132000I0J-532000D01*
G01*
X107630000Y-84068000D01*
G75*
G02*
X107098000Y-84600000I-532000J0D01*
G01*
X106262000Y-84600000D01*
G75*
G02*
X105730000Y-84068000I0J532000D01*
G01*
G37*
G36*
G01*
X95570000Y-84068000D02*
X95570000Y-82132000D01*
G75*
G02*
X96102000Y-81600000I532000J0D01*
G01*
X96938000Y-81600000D01*
G75*
G02*
X97470000Y-82132000I0J-532000D01*
G01*
X97470000Y-84068000D01*
G75*
G02*
X96938000Y-84600000I-532000J0D01*
G01*
X96102000Y-84600000D01*
G75*
G02*
X95570000Y-84068000I0J532000D01*
G01*
G37*
G36*
G01*
X98110000Y-84068000D02*
X98110000Y-82132000D01*
G75*
G02*
X98642000Y-81600000I532000J0D01*
G01*
X99478000Y-81600000D01*
G75*
G02*
X100010000Y-82132000I0J-532000D01*
G01*
X100010000Y-84068000D01*
G75*
G02*
X99478000Y-84600000I-532000J0D01*
G01*
X98642000Y-84600000D01*
G75*
G02*
X98110000Y-84068000I0J532000D01*
G01*
G37*
G36*
G01*
X100650000Y-84068000D02*
X100650000Y-82132000D01*
G75*
G02*
X101182000Y-81600000I532000J0D01*
G01*
X102018000Y-81600000D01*
G75*
G02*
X102550000Y-82132000I0J-532000D01*
G01*
X102550000Y-84068000D01*
G75*
G02*
X102018000Y-84600000I-532000J0D01*
G01*
X101182000Y-84600000D01*
G75*
G02*
X100650000Y-84068000I0J532000D01*
G01*
G37*
G36*
G01*
X103190000Y-84068000D02*
X103190000Y-82132000D01*
G75*
G02*
X103722000Y-81600000I532000J0D01*
G01*
X104558000Y-81600000D01*
G75*
G02*
X105090000Y-82132000I0J-532000D01*
G01*
X105090000Y-84068000D01*
G75*
G02*
X104558000Y-84600000I-532000J0D01*
G01*
X103722000Y-84600000D01*
G75*
G02*
X103190000Y-84068000I0J532000D01*
G01*
G37*
G36*
G01*
X93030000Y-84068000D02*
X93030000Y-82132000D01*
G75*
G02*
X93562000Y-81600000I532000J0D01*
G01*
X94398000Y-81600000D01*
G75*
G02*
X94930000Y-82132000I0J-532000D01*
G01*
X94930000Y-84068000D01*
G75*
G02*
X94398000Y-84600000I-532000J0D01*
G01*
X93562000Y-84600000D01*
G75*
G02*
X93030000Y-84068000I0J532000D01*
G01*
G37*
G36*
G01*
X90490000Y-84068000D02*
X90490000Y-82132000D01*
G75*
G02*
X91022000Y-81600000I532000J0D01*
G01*
X91858000Y-81600000D01*
G75*
G02*
X92390000Y-82132000I0J-532000D01*
G01*
X92390000Y-84068000D01*
G75*
G02*
X91858000Y-84600000I-532000J0D01*
G01*
X91022000Y-84600000D01*
G75*
G02*
X90490000Y-84068000I0J532000D01*
G01*
G37*
G36*
G01*
X87950000Y-84068000D02*
X87950000Y-82132000D01*
G75*
G02*
X88482000Y-81600000I532000J0D01*
G01*
X89318000Y-81600000D01*
G75*
G02*
X89850000Y-82132000I0J-532000D01*
G01*
X89850000Y-84068000D01*
G75*
G02*
X89318000Y-84600000I-532000J0D01*
G01*
X88482000Y-84600000D01*
G75*
G02*
X87950000Y-84068000I0J532000D01*
G01*
G37*
G36*
G01*
X105730000Y-67728000D02*
X105730000Y-65792000D01*
G75*
G02*
X106262000Y-65260000I532000J0D01*
G01*
X107098000Y-65260000D01*
G75*
G02*
X107630000Y-65792000I0J-532000D01*
G01*
X107630000Y-67728000D01*
G75*
G02*
X107098000Y-68260000I-532000J0D01*
G01*
X106262000Y-68260000D01*
G75*
G02*
X105730000Y-67728000I0J532000D01*
G01*
G37*
G36*
G01*
X103190000Y-67728000D02*
X103190000Y-65792000D01*
G75*
G02*
X103722000Y-65260000I532000J0D01*
G01*
X104558000Y-65260000D01*
G75*
G02*
X105090000Y-65792000I0J-532000D01*
G01*
X105090000Y-67728000D01*
G75*
G02*
X104558000Y-68260000I-532000J0D01*
G01*
X103722000Y-68260000D01*
G75*
G02*
X103190000Y-67728000I0J532000D01*
G01*
G37*
G36*
G01*
X100650000Y-67728000D02*
X100650000Y-65792000D01*
G75*
G02*
X101182000Y-65260000I532000J0D01*
G01*
X102018000Y-65260000D01*
G75*
G02*
X102550000Y-65792000I0J-532000D01*
G01*
X102550000Y-67728000D01*
G75*
G02*
X102018000Y-68260000I-532000J0D01*
G01*
X101182000Y-68260000D01*
G75*
G02*
X100650000Y-67728000I0J532000D01*
G01*
G37*
G36*
G01*
X98110000Y-67728000D02*
X98110000Y-65792000D01*
G75*
G02*
X98642000Y-65260000I532000J0D01*
G01*
X99478000Y-65260000D01*
G75*
G02*
X100010000Y-65792000I0J-532000D01*
G01*
X100010000Y-67728000D01*
G75*
G02*
X99478000Y-68260000I-532000J0D01*
G01*
X98642000Y-68260000D01*
G75*
G02*
X98110000Y-67728000I0J532000D01*
G01*
G37*
G36*
G01*
X95570000Y-67728000D02*
X95570000Y-65792000D01*
G75*
G02*
X96102000Y-65260000I532000J0D01*
G01*
X96938000Y-65260000D01*
G75*
G02*
X97470000Y-65792000I0J-532000D01*
G01*
X97470000Y-67728000D01*
G75*
G02*
X96938000Y-68260000I-532000J0D01*
G01*
X96102000Y-68260000D01*
G75*
G02*
X95570000Y-67728000I0J532000D01*
G01*
G37*
G36*
G01*
X93030000Y-67728000D02*
X93030000Y-65792000D01*
G75*
G02*
X93562000Y-65260000I532000J0D01*
G01*
X94398000Y-65260000D01*
G75*
G02*
X94930000Y-65792000I0J-532000D01*
G01*
X94930000Y-67728000D01*
G75*
G02*
X94398000Y-68260000I-532000J0D01*
G01*
X93562000Y-68260000D01*
G75*
G02*
X93030000Y-67728000I0J532000D01*
G01*
G37*
G36*
G01*
X90490000Y-67728000D02*
X90490000Y-65792000D01*
G75*
G02*
X91022000Y-65260000I532000J0D01*
G01*
X91858000Y-65260000D01*
G75*
G02*
X92390000Y-65792000I0J-532000D01*
G01*
X92390000Y-67728000D01*
G75*
G02*
X91858000Y-68260000I-532000J0D01*
G01*
X91022000Y-68260000D01*
G75*
G02*
X90490000Y-67728000I0J532000D01*
G01*
G37*
G36*
G01*
X87950000Y-67728000D02*
X87950000Y-65792000D01*
G75*
G02*
X88482000Y-65260000I532000J0D01*
G01*
X89318000Y-65260000D01*
G75*
G02*
X89850000Y-65792000I0J-532000D01*
G01*
X89850000Y-67728000D01*
G75*
G02*
X89318000Y-68260000I-532000J0D01*
G01*
X88482000Y-68260000D01*
G75*
G02*
X87950000Y-67728000I0J532000D01*
G01*
G37*
%TD*%
M02*
