%TF.GenerationSoftware,KiCad,Pcbnew,(5.1.10)-1*%
%TF.CreationDate,2021-11-13T20:11:30+01:00*%
%TF.ProjectId,Muino_debugger,4d75696e-6f5f-4646-9562-75676765722e,rev?*%
%TF.SameCoordinates,Original*%
%TF.FileFunction,Copper,L2,Bot*%
%TF.FilePolarity,Positive*%
%FSLAX46Y46*%
G04 Gerber Fmt 4.6, Leading zero omitted, Abs format (unit mm)*
G04 Created by KiCad (PCBNEW (5.1.10)-1) date 2021-11-13 20:11:30*
%MOMM*%
%LPD*%
G01*
G04 APERTURE LIST*
%TA.AperFunction,ComponentPad*%
%ADD10O,1.700000X1.700000*%
%TD*%
%TA.AperFunction,ComponentPad*%
%ADD11R,1.700000X1.700000*%
%TD*%
%TA.AperFunction,ViaPad*%
%ADD12C,0.800000*%
%TD*%
%TA.AperFunction,Conductor*%
%ADD13C,0.250000*%
%TD*%
%TA.AperFunction,Conductor*%
%ADD14C,0.500000*%
%TD*%
%TA.AperFunction,Conductor*%
%ADD15C,0.254000*%
%TD*%
%TA.AperFunction,Conductor*%
%ADD16C,0.100000*%
%TD*%
G04 APERTURE END LIST*
D10*
%TO.P,J3,2*%
%TO.N,+5VD*%
X125730000Y-86360000D03*
D11*
%TO.P,J3,1*%
%TO.N,Net-(J1-Pad5)*%
X125730000Y-83820000D03*
%TD*%
D10*
%TO.P,J2,10*%
%TO.N,+3V3*%
X120650000Y-83820000D03*
%TO.P,J2,9*%
%TO.N,GND*%
X120650000Y-86360000D03*
%TO.P,J2,8*%
%TO.N,+3V3*%
X118110000Y-83820000D03*
%TO.P,J2,7*%
%TO.N,GND*%
X118110000Y-86360000D03*
%TO.P,J2,6*%
%TO.N,+3V3*%
X115570000Y-83820000D03*
%TO.P,J2,5*%
%TO.N,GND*%
X115570000Y-86360000D03*
%TO.P,J2,4*%
%TO.N,+5VD*%
X113030000Y-83820000D03*
%TO.P,J2,3*%
%TO.N,GND*%
X113030000Y-86360000D03*
%TO.P,J2,2*%
%TO.N,+5VD*%
X110490000Y-83820000D03*
D11*
%TO.P,J2,1*%
%TO.N,GND*%
X110490000Y-86360000D03*
%TD*%
D10*
%TO.P,J1,10*%
%TO.N,nRESET*%
X125730000Y-69850000D03*
%TO.P,J1,9*%
%TO.N,GNDdetect*%
X128270000Y-69850000D03*
%TO.P,J1,8*%
%TO.N,Rx_Programmer*%
X125730000Y-72390000D03*
%TO.P,J1,7*%
%TO.N,Tx_Programmer*%
X128270000Y-72390000D03*
%TO.P,J1,6*%
%TO.N,SWO*%
X125730000Y-74930000D03*
%TO.P,J1,5*%
%TO.N,Net-(J1-Pad5)*%
X128270000Y-74930000D03*
%TO.P,J1,4*%
%TO.N,SWDCLK*%
X125730000Y-77470000D03*
%TO.P,J1,3*%
%TO.N,GND*%
X128270000Y-77470000D03*
%TO.P,J1,2*%
%TO.N,SWDIO*%
X125730000Y-80010000D03*
D11*
%TO.P,J1,1*%
%TO.N,vTref*%
X128270000Y-80010000D03*
%TD*%
D12*
%TO.N,SWDIO*%
X96520000Y-70485000D03*
X96520000Y-67945000D03*
%TO.N,nRESET*%
X106045000Y-62320000D03*
X104140000Y-66760000D03*
%TO.N,GND*%
X112395000Y-75565000D03*
X120487440Y-73375520D03*
X115331240Y-77790040D03*
X104764840Y-74930000D03*
X88198960Y-62865000D03*
X91440000Y-85664040D03*
X99700000Y-86200000D03*
X107700000Y-82080000D03*
%TO.N,SWDCLK*%
X93345000Y-70485000D03*
X93980000Y-67945000D03*
%TD*%
D13*
%TO.N,SWDIO*%
X96520000Y-70485000D02*
X96520000Y-67945000D01*
%TO.N,nRESET*%
X106045000Y-62320000D02*
X104140000Y-64225000D01*
X104140000Y-64225000D02*
X104140000Y-66760000D01*
D14*
%TO.N,GND*%
X129570001Y-77567920D02*
X129570001Y-82029999D01*
X129472081Y-77470000D02*
X129570001Y-77567920D01*
X128270000Y-77470000D02*
X129472081Y-77470000D01*
X129570001Y-82029999D02*
X129400000Y-82200000D01*
D13*
%TO.N,SWDCLK*%
X93980000Y-69850000D02*
X93345000Y-70485000D01*
X93980000Y-67945000D02*
X93980000Y-69850000D01*
%TD*%
D15*
%TO.N,GND*%
X105241063Y-61660226D02*
X105127795Y-61829744D01*
X105049774Y-62018102D01*
X105010000Y-62218061D01*
X105010000Y-62280198D01*
X103629003Y-63661196D01*
X103599999Y-63684999D01*
X103544871Y-63752174D01*
X103505026Y-63800724D01*
X103434455Y-63932753D01*
X103434454Y-63932754D01*
X103390997Y-64076015D01*
X103380000Y-64187668D01*
X103380000Y-64187678D01*
X103376324Y-64225000D01*
X103380000Y-64262323D01*
X103380001Y-66056288D01*
X103336063Y-66100226D01*
X103222795Y-66269744D01*
X103144774Y-66458102D01*
X103105000Y-66658061D01*
X103105000Y-66861939D01*
X103144774Y-67061898D01*
X103222795Y-67250256D01*
X103336063Y-67419774D01*
X103480226Y-67563937D01*
X103649744Y-67677205D01*
X103838102Y-67755226D01*
X104038061Y-67795000D01*
X104241939Y-67795000D01*
X104441898Y-67755226D01*
X104630256Y-67677205D01*
X104799774Y-67563937D01*
X104943937Y-67419774D01*
X105057205Y-67250256D01*
X105135226Y-67061898D01*
X105175000Y-66861939D01*
X105175000Y-66658061D01*
X105135226Y-66458102D01*
X105057205Y-66269744D01*
X104943937Y-66100226D01*
X104900000Y-66056289D01*
X104900000Y-64539801D01*
X106084802Y-63355000D01*
X106146939Y-63355000D01*
X106346898Y-63315226D01*
X106535256Y-63237205D01*
X106704774Y-63123937D01*
X106848937Y-62979774D01*
X106962205Y-62810256D01*
X107040226Y-62621898D01*
X107080000Y-62421939D01*
X107080000Y-62218061D01*
X107040226Y-62018102D01*
X106962205Y-61829744D01*
X106848937Y-61660226D01*
X106833711Y-61645000D01*
X129490613Y-61645000D01*
X129497207Y-69013715D01*
X129423475Y-68903368D01*
X129216632Y-68696525D01*
X128973411Y-68534010D01*
X128703158Y-68422068D01*
X128416260Y-68365000D01*
X128123740Y-68365000D01*
X127836842Y-68422068D01*
X127566589Y-68534010D01*
X127323368Y-68696525D01*
X127116525Y-68903368D01*
X127000000Y-69077760D01*
X126883475Y-68903368D01*
X126676632Y-68696525D01*
X126433411Y-68534010D01*
X126163158Y-68422068D01*
X125876260Y-68365000D01*
X125583740Y-68365000D01*
X125296842Y-68422068D01*
X125026589Y-68534010D01*
X124783368Y-68696525D01*
X124576525Y-68903368D01*
X124414010Y-69146589D01*
X124302068Y-69416842D01*
X124245000Y-69703740D01*
X124245000Y-69996260D01*
X124302068Y-70283158D01*
X124414010Y-70553411D01*
X124576525Y-70796632D01*
X124783368Y-71003475D01*
X124957760Y-71120000D01*
X124783368Y-71236525D01*
X124576525Y-71443368D01*
X124414010Y-71686589D01*
X124302068Y-71956842D01*
X124245000Y-72243740D01*
X124245000Y-72536260D01*
X124302068Y-72823158D01*
X124414010Y-73093411D01*
X124576525Y-73336632D01*
X124783368Y-73543475D01*
X124957760Y-73660000D01*
X124783368Y-73776525D01*
X124576525Y-73983368D01*
X124414010Y-74226589D01*
X124302068Y-74496842D01*
X124245000Y-74783740D01*
X124245000Y-75076260D01*
X124302068Y-75363158D01*
X124414010Y-75633411D01*
X124576525Y-75876632D01*
X124783368Y-76083475D01*
X124957760Y-76200000D01*
X124783368Y-76316525D01*
X124576525Y-76523368D01*
X124414010Y-76766589D01*
X124302068Y-77036842D01*
X124245000Y-77323740D01*
X124245000Y-77616260D01*
X124302068Y-77903158D01*
X124414010Y-78173411D01*
X124576525Y-78416632D01*
X124783368Y-78623475D01*
X124957760Y-78740000D01*
X124783368Y-78856525D01*
X124576525Y-79063368D01*
X124414010Y-79306589D01*
X124302068Y-79576842D01*
X124245000Y-79863740D01*
X124245000Y-80156260D01*
X124302068Y-80443158D01*
X124414010Y-80713411D01*
X124576525Y-80956632D01*
X124783368Y-81163475D01*
X125026589Y-81325990D01*
X125296842Y-81437932D01*
X125583740Y-81495000D01*
X125876260Y-81495000D01*
X126163158Y-81437932D01*
X126433411Y-81325990D01*
X126676632Y-81163475D01*
X126808487Y-81031620D01*
X126830498Y-81104180D01*
X126889463Y-81214494D01*
X126968815Y-81311185D01*
X127065506Y-81390537D01*
X127175820Y-81449502D01*
X127295518Y-81485812D01*
X127420000Y-81498072D01*
X129120000Y-81498072D01*
X129244482Y-81485812D01*
X129364180Y-81449502D01*
X129474494Y-81390537D01*
X129508256Y-81362829D01*
X129514387Y-88215000D01*
X87680000Y-88215000D01*
X87680000Y-87210000D01*
X109001928Y-87210000D01*
X109014188Y-87334482D01*
X109050498Y-87454180D01*
X109109463Y-87564494D01*
X109188815Y-87661185D01*
X109285506Y-87740537D01*
X109395820Y-87799502D01*
X109515518Y-87835812D01*
X109640000Y-87848072D01*
X110204250Y-87845000D01*
X110363000Y-87686250D01*
X110363000Y-86487000D01*
X110617000Y-86487000D01*
X110617000Y-87686250D01*
X110775750Y-87845000D01*
X111340000Y-87848072D01*
X111464482Y-87835812D01*
X111584180Y-87799502D01*
X111694494Y-87740537D01*
X111791185Y-87661185D01*
X111870537Y-87564494D01*
X111929502Y-87454180D01*
X111953966Y-87373534D01*
X112029731Y-87457588D01*
X112263080Y-87631641D01*
X112525901Y-87756825D01*
X112673110Y-87801476D01*
X112903000Y-87680155D01*
X112903000Y-86487000D01*
X113157000Y-86487000D01*
X113157000Y-87680155D01*
X113386890Y-87801476D01*
X113534099Y-87756825D01*
X113796920Y-87631641D01*
X114030269Y-87457588D01*
X114225178Y-87241355D01*
X114300000Y-87115745D01*
X114374822Y-87241355D01*
X114569731Y-87457588D01*
X114803080Y-87631641D01*
X115065901Y-87756825D01*
X115213110Y-87801476D01*
X115443000Y-87680155D01*
X115443000Y-86487000D01*
X115697000Y-86487000D01*
X115697000Y-87680155D01*
X115926890Y-87801476D01*
X116074099Y-87756825D01*
X116336920Y-87631641D01*
X116570269Y-87457588D01*
X116765178Y-87241355D01*
X116840000Y-87115745D01*
X116914822Y-87241355D01*
X117109731Y-87457588D01*
X117343080Y-87631641D01*
X117605901Y-87756825D01*
X117753110Y-87801476D01*
X117983000Y-87680155D01*
X117983000Y-86487000D01*
X118237000Y-86487000D01*
X118237000Y-87680155D01*
X118466890Y-87801476D01*
X118614099Y-87756825D01*
X118876920Y-87631641D01*
X119110269Y-87457588D01*
X119305178Y-87241355D01*
X119380000Y-87115745D01*
X119454822Y-87241355D01*
X119649731Y-87457588D01*
X119883080Y-87631641D01*
X120145901Y-87756825D01*
X120293110Y-87801476D01*
X120523000Y-87680155D01*
X120523000Y-86487000D01*
X120777000Y-86487000D01*
X120777000Y-87680155D01*
X121006890Y-87801476D01*
X121154099Y-87756825D01*
X121416920Y-87631641D01*
X121650269Y-87457588D01*
X121845178Y-87241355D01*
X121994157Y-86991252D01*
X122091481Y-86716891D01*
X121970814Y-86487000D01*
X120777000Y-86487000D01*
X120523000Y-86487000D01*
X118237000Y-86487000D01*
X117983000Y-86487000D01*
X115697000Y-86487000D01*
X115443000Y-86487000D01*
X113157000Y-86487000D01*
X112903000Y-86487000D01*
X110617000Y-86487000D01*
X110363000Y-86487000D01*
X109163750Y-86487000D01*
X109005000Y-86645750D01*
X109001928Y-87210000D01*
X87680000Y-87210000D01*
X87680000Y-85510000D01*
X109001928Y-85510000D01*
X109005000Y-86074250D01*
X109163750Y-86233000D01*
X110363000Y-86233000D01*
X110363000Y-86213000D01*
X110617000Y-86213000D01*
X110617000Y-86233000D01*
X112903000Y-86233000D01*
X112903000Y-86213000D01*
X113157000Y-86213000D01*
X113157000Y-86233000D01*
X115443000Y-86233000D01*
X115443000Y-86213000D01*
X115697000Y-86213000D01*
X115697000Y-86233000D01*
X117983000Y-86233000D01*
X117983000Y-86213000D01*
X118237000Y-86213000D01*
X118237000Y-86233000D01*
X120523000Y-86233000D01*
X120523000Y-86213000D01*
X120777000Y-86213000D01*
X120777000Y-86233000D01*
X121970814Y-86233000D01*
X122091481Y-86003109D01*
X121994157Y-85728748D01*
X121845178Y-85478645D01*
X121650269Y-85262412D01*
X121420594Y-85091100D01*
X121596632Y-84973475D01*
X121803475Y-84766632D01*
X121965990Y-84523411D01*
X122077932Y-84253158D01*
X122135000Y-83966260D01*
X122135000Y-83673740D01*
X122077932Y-83386842D01*
X121965990Y-83116589D01*
X121868043Y-82970000D01*
X124241928Y-82970000D01*
X124241928Y-84670000D01*
X124254188Y-84794482D01*
X124290498Y-84914180D01*
X124349463Y-85024494D01*
X124428815Y-85121185D01*
X124525506Y-85200537D01*
X124635820Y-85259502D01*
X124708380Y-85281513D01*
X124576525Y-85413368D01*
X124414010Y-85656589D01*
X124302068Y-85926842D01*
X124245000Y-86213740D01*
X124245000Y-86506260D01*
X124302068Y-86793158D01*
X124414010Y-87063411D01*
X124576525Y-87306632D01*
X124783368Y-87513475D01*
X125026589Y-87675990D01*
X125296842Y-87787932D01*
X125583740Y-87845000D01*
X125876260Y-87845000D01*
X126163158Y-87787932D01*
X126433411Y-87675990D01*
X126676632Y-87513475D01*
X126883475Y-87306632D01*
X127045990Y-87063411D01*
X127157932Y-86793158D01*
X127215000Y-86506260D01*
X127215000Y-86213740D01*
X127157932Y-85926842D01*
X127045990Y-85656589D01*
X126883475Y-85413368D01*
X126751620Y-85281513D01*
X126824180Y-85259502D01*
X126934494Y-85200537D01*
X127031185Y-85121185D01*
X127110537Y-85024494D01*
X127169502Y-84914180D01*
X127205812Y-84794482D01*
X127218072Y-84670000D01*
X127218072Y-82970000D01*
X127205812Y-82845518D01*
X127169502Y-82725820D01*
X127110537Y-82615506D01*
X127031185Y-82518815D01*
X126934494Y-82439463D01*
X126824180Y-82380498D01*
X126704482Y-82344188D01*
X126580000Y-82331928D01*
X124880000Y-82331928D01*
X124755518Y-82344188D01*
X124635820Y-82380498D01*
X124525506Y-82439463D01*
X124428815Y-82518815D01*
X124349463Y-82615506D01*
X124290498Y-82725820D01*
X124254188Y-82845518D01*
X124241928Y-82970000D01*
X121868043Y-82970000D01*
X121803475Y-82873368D01*
X121596632Y-82666525D01*
X121353411Y-82504010D01*
X121083158Y-82392068D01*
X120796260Y-82335000D01*
X120503740Y-82335000D01*
X120216842Y-82392068D01*
X119946589Y-82504010D01*
X119703368Y-82666525D01*
X119496525Y-82873368D01*
X119380000Y-83047760D01*
X119263475Y-82873368D01*
X119056632Y-82666525D01*
X118813411Y-82504010D01*
X118543158Y-82392068D01*
X118256260Y-82335000D01*
X117963740Y-82335000D01*
X117676842Y-82392068D01*
X117406589Y-82504010D01*
X117163368Y-82666525D01*
X116956525Y-82873368D01*
X116840000Y-83047760D01*
X116723475Y-82873368D01*
X116516632Y-82666525D01*
X116273411Y-82504010D01*
X116003158Y-82392068D01*
X115716260Y-82335000D01*
X115423740Y-82335000D01*
X115136842Y-82392068D01*
X114866589Y-82504010D01*
X114623368Y-82666525D01*
X114416525Y-82873368D01*
X114300000Y-83047760D01*
X114183475Y-82873368D01*
X113976632Y-82666525D01*
X113733411Y-82504010D01*
X113463158Y-82392068D01*
X113176260Y-82335000D01*
X112883740Y-82335000D01*
X112596842Y-82392068D01*
X112326589Y-82504010D01*
X112083368Y-82666525D01*
X111876525Y-82873368D01*
X111760000Y-83047760D01*
X111643475Y-82873368D01*
X111436632Y-82666525D01*
X111193411Y-82504010D01*
X110923158Y-82392068D01*
X110636260Y-82335000D01*
X110343740Y-82335000D01*
X110056842Y-82392068D01*
X109786589Y-82504010D01*
X109543368Y-82666525D01*
X109336525Y-82873368D01*
X109174010Y-83116589D01*
X109062068Y-83386842D01*
X109005000Y-83673740D01*
X109005000Y-83966260D01*
X109062068Y-84253158D01*
X109174010Y-84523411D01*
X109336525Y-84766632D01*
X109468380Y-84898487D01*
X109395820Y-84920498D01*
X109285506Y-84979463D01*
X109188815Y-85058815D01*
X109109463Y-85155506D01*
X109050498Y-85265820D01*
X109014188Y-85385518D01*
X109001928Y-85510000D01*
X87680000Y-85510000D01*
X87680000Y-70383061D01*
X92310000Y-70383061D01*
X92310000Y-70586939D01*
X92349774Y-70786898D01*
X92427795Y-70975256D01*
X92541063Y-71144774D01*
X92685226Y-71288937D01*
X92854744Y-71402205D01*
X93043102Y-71480226D01*
X93243061Y-71520000D01*
X93446939Y-71520000D01*
X93646898Y-71480226D01*
X93835256Y-71402205D01*
X94004774Y-71288937D01*
X94148937Y-71144774D01*
X94262205Y-70975256D01*
X94340226Y-70786898D01*
X94380000Y-70586939D01*
X94380000Y-70524802D01*
X94491002Y-70413800D01*
X94520001Y-70390001D01*
X94614974Y-70274276D01*
X94685546Y-70142247D01*
X94729003Y-69998986D01*
X94740000Y-69887333D01*
X94743677Y-69850000D01*
X94740000Y-69812667D01*
X94740000Y-68648711D01*
X94783937Y-68604774D01*
X94897205Y-68435256D01*
X94975226Y-68246898D01*
X95015000Y-68046939D01*
X95015000Y-67843061D01*
X95485000Y-67843061D01*
X95485000Y-68046939D01*
X95524774Y-68246898D01*
X95602795Y-68435256D01*
X95716063Y-68604774D01*
X95760001Y-68648712D01*
X95760000Y-69781289D01*
X95716063Y-69825226D01*
X95602795Y-69994744D01*
X95524774Y-70183102D01*
X95485000Y-70383061D01*
X95485000Y-70586939D01*
X95524774Y-70786898D01*
X95602795Y-70975256D01*
X95716063Y-71144774D01*
X95860226Y-71288937D01*
X96029744Y-71402205D01*
X96218102Y-71480226D01*
X96418061Y-71520000D01*
X96621939Y-71520000D01*
X96821898Y-71480226D01*
X97010256Y-71402205D01*
X97179774Y-71288937D01*
X97323937Y-71144774D01*
X97437205Y-70975256D01*
X97515226Y-70786898D01*
X97555000Y-70586939D01*
X97555000Y-70383061D01*
X97515226Y-70183102D01*
X97437205Y-69994744D01*
X97323937Y-69825226D01*
X97280000Y-69781289D01*
X97280000Y-68648711D01*
X97323937Y-68604774D01*
X97437205Y-68435256D01*
X97515226Y-68246898D01*
X97555000Y-68046939D01*
X97555000Y-67843061D01*
X97515226Y-67643102D01*
X97437205Y-67454744D01*
X97323937Y-67285226D01*
X97179774Y-67141063D01*
X97010256Y-67027795D01*
X96821898Y-66949774D01*
X96621939Y-66910000D01*
X96418061Y-66910000D01*
X96218102Y-66949774D01*
X96029744Y-67027795D01*
X95860226Y-67141063D01*
X95716063Y-67285226D01*
X95602795Y-67454744D01*
X95524774Y-67643102D01*
X95485000Y-67843061D01*
X95015000Y-67843061D01*
X94975226Y-67643102D01*
X94897205Y-67454744D01*
X94783937Y-67285226D01*
X94639774Y-67141063D01*
X94470256Y-67027795D01*
X94281898Y-66949774D01*
X94081939Y-66910000D01*
X93878061Y-66910000D01*
X93678102Y-66949774D01*
X93489744Y-67027795D01*
X93320226Y-67141063D01*
X93176063Y-67285226D01*
X93062795Y-67454744D01*
X92984774Y-67643102D01*
X92945000Y-67843061D01*
X92945000Y-68046939D01*
X92984774Y-68246898D01*
X93062795Y-68435256D01*
X93176063Y-68604774D01*
X93220000Y-68648711D01*
X93220001Y-69454587D01*
X93043102Y-69489774D01*
X92854744Y-69567795D01*
X92685226Y-69681063D01*
X92541063Y-69825226D01*
X92427795Y-69994744D01*
X92349774Y-70183102D01*
X92310000Y-70383061D01*
X87680000Y-70383061D01*
X87680000Y-61645000D01*
X105256289Y-61645000D01*
X105241063Y-61660226D01*
%TA.AperFunction,Conductor*%
D16*
G36*
X105241063Y-61660226D02*
G01*
X105127795Y-61829744D01*
X105049774Y-62018102D01*
X105010000Y-62218061D01*
X105010000Y-62280198D01*
X103629003Y-63661196D01*
X103599999Y-63684999D01*
X103544871Y-63752174D01*
X103505026Y-63800724D01*
X103434455Y-63932753D01*
X103434454Y-63932754D01*
X103390997Y-64076015D01*
X103380000Y-64187668D01*
X103380000Y-64187678D01*
X103376324Y-64225000D01*
X103380000Y-64262323D01*
X103380001Y-66056288D01*
X103336063Y-66100226D01*
X103222795Y-66269744D01*
X103144774Y-66458102D01*
X103105000Y-66658061D01*
X103105000Y-66861939D01*
X103144774Y-67061898D01*
X103222795Y-67250256D01*
X103336063Y-67419774D01*
X103480226Y-67563937D01*
X103649744Y-67677205D01*
X103838102Y-67755226D01*
X104038061Y-67795000D01*
X104241939Y-67795000D01*
X104441898Y-67755226D01*
X104630256Y-67677205D01*
X104799774Y-67563937D01*
X104943937Y-67419774D01*
X105057205Y-67250256D01*
X105135226Y-67061898D01*
X105175000Y-66861939D01*
X105175000Y-66658061D01*
X105135226Y-66458102D01*
X105057205Y-66269744D01*
X104943937Y-66100226D01*
X104900000Y-66056289D01*
X104900000Y-64539801D01*
X106084802Y-63355000D01*
X106146939Y-63355000D01*
X106346898Y-63315226D01*
X106535256Y-63237205D01*
X106704774Y-63123937D01*
X106848937Y-62979774D01*
X106962205Y-62810256D01*
X107040226Y-62621898D01*
X107080000Y-62421939D01*
X107080000Y-62218061D01*
X107040226Y-62018102D01*
X106962205Y-61829744D01*
X106848937Y-61660226D01*
X106833711Y-61645000D01*
X129490613Y-61645000D01*
X129497207Y-69013715D01*
X129423475Y-68903368D01*
X129216632Y-68696525D01*
X128973411Y-68534010D01*
X128703158Y-68422068D01*
X128416260Y-68365000D01*
X128123740Y-68365000D01*
X127836842Y-68422068D01*
X127566589Y-68534010D01*
X127323368Y-68696525D01*
X127116525Y-68903368D01*
X127000000Y-69077760D01*
X126883475Y-68903368D01*
X126676632Y-68696525D01*
X126433411Y-68534010D01*
X126163158Y-68422068D01*
X125876260Y-68365000D01*
X125583740Y-68365000D01*
X125296842Y-68422068D01*
X125026589Y-68534010D01*
X124783368Y-68696525D01*
X124576525Y-68903368D01*
X124414010Y-69146589D01*
X124302068Y-69416842D01*
X124245000Y-69703740D01*
X124245000Y-69996260D01*
X124302068Y-70283158D01*
X124414010Y-70553411D01*
X124576525Y-70796632D01*
X124783368Y-71003475D01*
X124957760Y-71120000D01*
X124783368Y-71236525D01*
X124576525Y-71443368D01*
X124414010Y-71686589D01*
X124302068Y-71956842D01*
X124245000Y-72243740D01*
X124245000Y-72536260D01*
X124302068Y-72823158D01*
X124414010Y-73093411D01*
X124576525Y-73336632D01*
X124783368Y-73543475D01*
X124957760Y-73660000D01*
X124783368Y-73776525D01*
X124576525Y-73983368D01*
X124414010Y-74226589D01*
X124302068Y-74496842D01*
X124245000Y-74783740D01*
X124245000Y-75076260D01*
X124302068Y-75363158D01*
X124414010Y-75633411D01*
X124576525Y-75876632D01*
X124783368Y-76083475D01*
X124957760Y-76200000D01*
X124783368Y-76316525D01*
X124576525Y-76523368D01*
X124414010Y-76766589D01*
X124302068Y-77036842D01*
X124245000Y-77323740D01*
X124245000Y-77616260D01*
X124302068Y-77903158D01*
X124414010Y-78173411D01*
X124576525Y-78416632D01*
X124783368Y-78623475D01*
X124957760Y-78740000D01*
X124783368Y-78856525D01*
X124576525Y-79063368D01*
X124414010Y-79306589D01*
X124302068Y-79576842D01*
X124245000Y-79863740D01*
X124245000Y-80156260D01*
X124302068Y-80443158D01*
X124414010Y-80713411D01*
X124576525Y-80956632D01*
X124783368Y-81163475D01*
X125026589Y-81325990D01*
X125296842Y-81437932D01*
X125583740Y-81495000D01*
X125876260Y-81495000D01*
X126163158Y-81437932D01*
X126433411Y-81325990D01*
X126676632Y-81163475D01*
X126808487Y-81031620D01*
X126830498Y-81104180D01*
X126889463Y-81214494D01*
X126968815Y-81311185D01*
X127065506Y-81390537D01*
X127175820Y-81449502D01*
X127295518Y-81485812D01*
X127420000Y-81498072D01*
X129120000Y-81498072D01*
X129244482Y-81485812D01*
X129364180Y-81449502D01*
X129474494Y-81390537D01*
X129508256Y-81362829D01*
X129514387Y-88215000D01*
X87680000Y-88215000D01*
X87680000Y-87210000D01*
X109001928Y-87210000D01*
X109014188Y-87334482D01*
X109050498Y-87454180D01*
X109109463Y-87564494D01*
X109188815Y-87661185D01*
X109285506Y-87740537D01*
X109395820Y-87799502D01*
X109515518Y-87835812D01*
X109640000Y-87848072D01*
X110204250Y-87845000D01*
X110363000Y-87686250D01*
X110363000Y-86487000D01*
X110617000Y-86487000D01*
X110617000Y-87686250D01*
X110775750Y-87845000D01*
X111340000Y-87848072D01*
X111464482Y-87835812D01*
X111584180Y-87799502D01*
X111694494Y-87740537D01*
X111791185Y-87661185D01*
X111870537Y-87564494D01*
X111929502Y-87454180D01*
X111953966Y-87373534D01*
X112029731Y-87457588D01*
X112263080Y-87631641D01*
X112525901Y-87756825D01*
X112673110Y-87801476D01*
X112903000Y-87680155D01*
X112903000Y-86487000D01*
X113157000Y-86487000D01*
X113157000Y-87680155D01*
X113386890Y-87801476D01*
X113534099Y-87756825D01*
X113796920Y-87631641D01*
X114030269Y-87457588D01*
X114225178Y-87241355D01*
X114300000Y-87115745D01*
X114374822Y-87241355D01*
X114569731Y-87457588D01*
X114803080Y-87631641D01*
X115065901Y-87756825D01*
X115213110Y-87801476D01*
X115443000Y-87680155D01*
X115443000Y-86487000D01*
X115697000Y-86487000D01*
X115697000Y-87680155D01*
X115926890Y-87801476D01*
X116074099Y-87756825D01*
X116336920Y-87631641D01*
X116570269Y-87457588D01*
X116765178Y-87241355D01*
X116840000Y-87115745D01*
X116914822Y-87241355D01*
X117109731Y-87457588D01*
X117343080Y-87631641D01*
X117605901Y-87756825D01*
X117753110Y-87801476D01*
X117983000Y-87680155D01*
X117983000Y-86487000D01*
X118237000Y-86487000D01*
X118237000Y-87680155D01*
X118466890Y-87801476D01*
X118614099Y-87756825D01*
X118876920Y-87631641D01*
X119110269Y-87457588D01*
X119305178Y-87241355D01*
X119380000Y-87115745D01*
X119454822Y-87241355D01*
X119649731Y-87457588D01*
X119883080Y-87631641D01*
X120145901Y-87756825D01*
X120293110Y-87801476D01*
X120523000Y-87680155D01*
X120523000Y-86487000D01*
X120777000Y-86487000D01*
X120777000Y-87680155D01*
X121006890Y-87801476D01*
X121154099Y-87756825D01*
X121416920Y-87631641D01*
X121650269Y-87457588D01*
X121845178Y-87241355D01*
X121994157Y-86991252D01*
X122091481Y-86716891D01*
X121970814Y-86487000D01*
X120777000Y-86487000D01*
X120523000Y-86487000D01*
X118237000Y-86487000D01*
X117983000Y-86487000D01*
X115697000Y-86487000D01*
X115443000Y-86487000D01*
X113157000Y-86487000D01*
X112903000Y-86487000D01*
X110617000Y-86487000D01*
X110363000Y-86487000D01*
X109163750Y-86487000D01*
X109005000Y-86645750D01*
X109001928Y-87210000D01*
X87680000Y-87210000D01*
X87680000Y-85510000D01*
X109001928Y-85510000D01*
X109005000Y-86074250D01*
X109163750Y-86233000D01*
X110363000Y-86233000D01*
X110363000Y-86213000D01*
X110617000Y-86213000D01*
X110617000Y-86233000D01*
X112903000Y-86233000D01*
X112903000Y-86213000D01*
X113157000Y-86213000D01*
X113157000Y-86233000D01*
X115443000Y-86233000D01*
X115443000Y-86213000D01*
X115697000Y-86213000D01*
X115697000Y-86233000D01*
X117983000Y-86233000D01*
X117983000Y-86213000D01*
X118237000Y-86213000D01*
X118237000Y-86233000D01*
X120523000Y-86233000D01*
X120523000Y-86213000D01*
X120777000Y-86213000D01*
X120777000Y-86233000D01*
X121970814Y-86233000D01*
X122091481Y-86003109D01*
X121994157Y-85728748D01*
X121845178Y-85478645D01*
X121650269Y-85262412D01*
X121420594Y-85091100D01*
X121596632Y-84973475D01*
X121803475Y-84766632D01*
X121965990Y-84523411D01*
X122077932Y-84253158D01*
X122135000Y-83966260D01*
X122135000Y-83673740D01*
X122077932Y-83386842D01*
X121965990Y-83116589D01*
X121868043Y-82970000D01*
X124241928Y-82970000D01*
X124241928Y-84670000D01*
X124254188Y-84794482D01*
X124290498Y-84914180D01*
X124349463Y-85024494D01*
X124428815Y-85121185D01*
X124525506Y-85200537D01*
X124635820Y-85259502D01*
X124708380Y-85281513D01*
X124576525Y-85413368D01*
X124414010Y-85656589D01*
X124302068Y-85926842D01*
X124245000Y-86213740D01*
X124245000Y-86506260D01*
X124302068Y-86793158D01*
X124414010Y-87063411D01*
X124576525Y-87306632D01*
X124783368Y-87513475D01*
X125026589Y-87675990D01*
X125296842Y-87787932D01*
X125583740Y-87845000D01*
X125876260Y-87845000D01*
X126163158Y-87787932D01*
X126433411Y-87675990D01*
X126676632Y-87513475D01*
X126883475Y-87306632D01*
X127045990Y-87063411D01*
X127157932Y-86793158D01*
X127215000Y-86506260D01*
X127215000Y-86213740D01*
X127157932Y-85926842D01*
X127045990Y-85656589D01*
X126883475Y-85413368D01*
X126751620Y-85281513D01*
X126824180Y-85259502D01*
X126934494Y-85200537D01*
X127031185Y-85121185D01*
X127110537Y-85024494D01*
X127169502Y-84914180D01*
X127205812Y-84794482D01*
X127218072Y-84670000D01*
X127218072Y-82970000D01*
X127205812Y-82845518D01*
X127169502Y-82725820D01*
X127110537Y-82615506D01*
X127031185Y-82518815D01*
X126934494Y-82439463D01*
X126824180Y-82380498D01*
X126704482Y-82344188D01*
X126580000Y-82331928D01*
X124880000Y-82331928D01*
X124755518Y-82344188D01*
X124635820Y-82380498D01*
X124525506Y-82439463D01*
X124428815Y-82518815D01*
X124349463Y-82615506D01*
X124290498Y-82725820D01*
X124254188Y-82845518D01*
X124241928Y-82970000D01*
X121868043Y-82970000D01*
X121803475Y-82873368D01*
X121596632Y-82666525D01*
X121353411Y-82504010D01*
X121083158Y-82392068D01*
X120796260Y-82335000D01*
X120503740Y-82335000D01*
X120216842Y-82392068D01*
X119946589Y-82504010D01*
X119703368Y-82666525D01*
X119496525Y-82873368D01*
X119380000Y-83047760D01*
X119263475Y-82873368D01*
X119056632Y-82666525D01*
X118813411Y-82504010D01*
X118543158Y-82392068D01*
X118256260Y-82335000D01*
X117963740Y-82335000D01*
X117676842Y-82392068D01*
X117406589Y-82504010D01*
X117163368Y-82666525D01*
X116956525Y-82873368D01*
X116840000Y-83047760D01*
X116723475Y-82873368D01*
X116516632Y-82666525D01*
X116273411Y-82504010D01*
X116003158Y-82392068D01*
X115716260Y-82335000D01*
X115423740Y-82335000D01*
X115136842Y-82392068D01*
X114866589Y-82504010D01*
X114623368Y-82666525D01*
X114416525Y-82873368D01*
X114300000Y-83047760D01*
X114183475Y-82873368D01*
X113976632Y-82666525D01*
X113733411Y-82504010D01*
X113463158Y-82392068D01*
X113176260Y-82335000D01*
X112883740Y-82335000D01*
X112596842Y-82392068D01*
X112326589Y-82504010D01*
X112083368Y-82666525D01*
X111876525Y-82873368D01*
X111760000Y-83047760D01*
X111643475Y-82873368D01*
X111436632Y-82666525D01*
X111193411Y-82504010D01*
X110923158Y-82392068D01*
X110636260Y-82335000D01*
X110343740Y-82335000D01*
X110056842Y-82392068D01*
X109786589Y-82504010D01*
X109543368Y-82666525D01*
X109336525Y-82873368D01*
X109174010Y-83116589D01*
X109062068Y-83386842D01*
X109005000Y-83673740D01*
X109005000Y-83966260D01*
X109062068Y-84253158D01*
X109174010Y-84523411D01*
X109336525Y-84766632D01*
X109468380Y-84898487D01*
X109395820Y-84920498D01*
X109285506Y-84979463D01*
X109188815Y-85058815D01*
X109109463Y-85155506D01*
X109050498Y-85265820D01*
X109014188Y-85385518D01*
X109001928Y-85510000D01*
X87680000Y-85510000D01*
X87680000Y-70383061D01*
X92310000Y-70383061D01*
X92310000Y-70586939D01*
X92349774Y-70786898D01*
X92427795Y-70975256D01*
X92541063Y-71144774D01*
X92685226Y-71288937D01*
X92854744Y-71402205D01*
X93043102Y-71480226D01*
X93243061Y-71520000D01*
X93446939Y-71520000D01*
X93646898Y-71480226D01*
X93835256Y-71402205D01*
X94004774Y-71288937D01*
X94148937Y-71144774D01*
X94262205Y-70975256D01*
X94340226Y-70786898D01*
X94380000Y-70586939D01*
X94380000Y-70524802D01*
X94491002Y-70413800D01*
X94520001Y-70390001D01*
X94614974Y-70274276D01*
X94685546Y-70142247D01*
X94729003Y-69998986D01*
X94740000Y-69887333D01*
X94743677Y-69850000D01*
X94740000Y-69812667D01*
X94740000Y-68648711D01*
X94783937Y-68604774D01*
X94897205Y-68435256D01*
X94975226Y-68246898D01*
X95015000Y-68046939D01*
X95015000Y-67843061D01*
X95485000Y-67843061D01*
X95485000Y-68046939D01*
X95524774Y-68246898D01*
X95602795Y-68435256D01*
X95716063Y-68604774D01*
X95760001Y-68648712D01*
X95760000Y-69781289D01*
X95716063Y-69825226D01*
X95602795Y-69994744D01*
X95524774Y-70183102D01*
X95485000Y-70383061D01*
X95485000Y-70586939D01*
X95524774Y-70786898D01*
X95602795Y-70975256D01*
X95716063Y-71144774D01*
X95860226Y-71288937D01*
X96029744Y-71402205D01*
X96218102Y-71480226D01*
X96418061Y-71520000D01*
X96621939Y-71520000D01*
X96821898Y-71480226D01*
X97010256Y-71402205D01*
X97179774Y-71288937D01*
X97323937Y-71144774D01*
X97437205Y-70975256D01*
X97515226Y-70786898D01*
X97555000Y-70586939D01*
X97555000Y-70383061D01*
X97515226Y-70183102D01*
X97437205Y-69994744D01*
X97323937Y-69825226D01*
X97280000Y-69781289D01*
X97280000Y-68648711D01*
X97323937Y-68604774D01*
X97437205Y-68435256D01*
X97515226Y-68246898D01*
X97555000Y-68046939D01*
X97555000Y-67843061D01*
X97515226Y-67643102D01*
X97437205Y-67454744D01*
X97323937Y-67285226D01*
X97179774Y-67141063D01*
X97010256Y-67027795D01*
X96821898Y-66949774D01*
X96621939Y-66910000D01*
X96418061Y-66910000D01*
X96218102Y-66949774D01*
X96029744Y-67027795D01*
X95860226Y-67141063D01*
X95716063Y-67285226D01*
X95602795Y-67454744D01*
X95524774Y-67643102D01*
X95485000Y-67843061D01*
X95015000Y-67843061D01*
X94975226Y-67643102D01*
X94897205Y-67454744D01*
X94783937Y-67285226D01*
X94639774Y-67141063D01*
X94470256Y-67027795D01*
X94281898Y-66949774D01*
X94081939Y-66910000D01*
X93878061Y-66910000D01*
X93678102Y-66949774D01*
X93489744Y-67027795D01*
X93320226Y-67141063D01*
X93176063Y-67285226D01*
X93062795Y-67454744D01*
X92984774Y-67643102D01*
X92945000Y-67843061D01*
X92945000Y-68046939D01*
X92984774Y-68246898D01*
X93062795Y-68435256D01*
X93176063Y-68604774D01*
X93220000Y-68648711D01*
X93220001Y-69454587D01*
X93043102Y-69489774D01*
X92854744Y-69567795D01*
X92685226Y-69681063D01*
X92541063Y-69825226D01*
X92427795Y-69994744D01*
X92349774Y-70183102D01*
X92310000Y-70383061D01*
X87680000Y-70383061D01*
X87680000Y-61645000D01*
X105256289Y-61645000D01*
X105241063Y-61660226D01*
G37*
%TD.AperFunction*%
D15*
X128397000Y-77343000D02*
X128417000Y-77343000D01*
X128417000Y-77597000D01*
X128397000Y-77597000D01*
X128397000Y-77617000D01*
X128143000Y-77617000D01*
X128143000Y-77597000D01*
X128123000Y-77597000D01*
X128123000Y-77343000D01*
X128143000Y-77343000D01*
X128143000Y-77323000D01*
X128397000Y-77323000D01*
X128397000Y-77343000D01*
%TA.AperFunction,Conductor*%
D16*
G36*
X128397000Y-77343000D02*
G01*
X128417000Y-77343000D01*
X128417000Y-77597000D01*
X128397000Y-77597000D01*
X128397000Y-77617000D01*
X128143000Y-77617000D01*
X128143000Y-77597000D01*
X128123000Y-77597000D01*
X128123000Y-77343000D01*
X128143000Y-77343000D01*
X128143000Y-77323000D01*
X128397000Y-77323000D01*
X128397000Y-77343000D01*
G37*
%TD.AperFunction*%
%TD*%
M02*
