%FSLAX45Y45*%
G04 Gerber Fmt 4.5, Leading zero omitted, Abs format (unit mm)*
G04 Created by KiCad (PCBNEW (5.1.10)-1) date 2021-11-13 20:11:33*
%MOMM*%
%LPD*%
G01*
G04 APERTURE LIST*
%TA.AperFunction,Profile*%
%ADD10C,0.100000*%
%TD*%
%ADD11C,0.200000*%
%ADD12C,0.300000*%
G04 APERTURE END LIST*
D10*
X13020000Y-8890000D02*
X8699500Y-8890000D01*
X8699500Y-8890000D02*
X8699500Y-6096000D01*
X8699500Y-6096000D02*
X13017500Y-6096000D01*
X13017500Y-6096000D02*
X13020000Y-8890000D01*
D11*
D12*
X8980928Y-9360714D02*
X8980928Y-9060714D01*
X9052357Y-9060714D01*
X9095214Y-9075000D01*
X9123786Y-9103572D01*
X9138071Y-9132143D01*
X9152357Y-9189286D01*
X9152357Y-9232143D01*
X9138071Y-9289286D01*
X9123786Y-9317857D01*
X9095214Y-9346429D01*
X9052357Y-9360714D01*
X8980928Y-9360714D01*
X9280928Y-9360714D02*
X9280928Y-9160714D01*
X9280928Y-9217857D02*
X9295214Y-9189286D01*
X9309500Y-9175000D01*
X9338071Y-9160714D01*
X9366643Y-9160714D01*
X9466643Y-9360714D02*
X9466643Y-9160714D01*
X9466643Y-9060714D02*
X9452357Y-9075000D01*
X9466643Y-9089286D01*
X9480928Y-9075000D01*
X9466643Y-9060714D01*
X9466643Y-9089286D01*
X9652357Y-9360714D02*
X9623786Y-9346429D01*
X9609500Y-9317857D01*
X9609500Y-9060714D01*
X9809500Y-9360714D02*
X9780928Y-9346429D01*
X9766643Y-9317857D01*
X9766643Y-9060714D01*
X10152357Y-9360714D02*
X10152357Y-9060714D01*
X10252357Y-9275000D01*
X10352357Y-9060714D01*
X10352357Y-9360714D01*
X10623786Y-9360714D02*
X10623786Y-9203572D01*
X10609500Y-9175000D01*
X10580928Y-9160714D01*
X10523786Y-9160714D01*
X10495214Y-9175000D01*
X10623786Y-9346429D02*
X10595214Y-9360714D01*
X10523786Y-9360714D01*
X10495214Y-9346429D01*
X10480928Y-9317857D01*
X10480928Y-9289286D01*
X10495214Y-9260714D01*
X10523786Y-9246429D01*
X10595214Y-9246429D01*
X10623786Y-9232143D01*
X10766643Y-9160714D02*
X10766643Y-9460714D01*
X10766643Y-9175000D02*
X10795214Y-9160714D01*
X10852357Y-9160714D01*
X10880928Y-9175000D01*
X10895214Y-9189286D01*
X10909500Y-9217857D01*
X10909500Y-9303572D01*
X10895214Y-9332143D01*
X10880928Y-9346429D01*
X10852357Y-9360714D01*
X10795214Y-9360714D01*
X10766643Y-9346429D01*
X11038071Y-9332143D02*
X11052357Y-9346429D01*
X11038071Y-9360714D01*
X11023786Y-9346429D01*
X11038071Y-9332143D01*
X11038071Y-9360714D01*
X11038071Y-9175000D02*
X11052357Y-9189286D01*
X11038071Y-9203572D01*
X11023786Y-9189286D01*
X11038071Y-9175000D01*
X11038071Y-9203572D01*
M02*
